<svg width="65" height="64" viewBox="0 0 65 64" fill="none" xmlns="http://www.w3.org/2000/svg">
<g clip-path="url(#clip0_247_1272)">
<path d="M4.71356 21.843C2.28447 28.8606 2.74259 36.5557 5.98712 43.2354C9.23165 49.9152 14.9968 55.0325 22.0144 57.4616C29.0319 59.8907 36.727 59.4326 43.4068 56.188C50.0865 52.9435 55.2039 47.1783 57.6329 40.1608C60.062 33.1432 59.6039 25.4482 56.3594 18.7684C53.1148 12.0886 47.3497 6.97131 40.3321 4.54222C33.3146 2.11314 25.6195 2.57126 18.9397 5.81579C12.2599 9.06032 7.14264 14.8255 4.71356 21.843Z" fill="#D6DFF2"/>
<path d="M31.1737 54.0069C28.6207 54.0069 26.0897 53.5789 23.6507 52.7349C17.8437 50.7259 13.1687 46.5759 10.4837 41.0499C7.79973 35.5239 7.42773 29.2829 9.43673 23.4769C12.6427 14.2149 21.3767 7.99194 31.1697 7.99194C33.7227 7.99194 36.2537 8.41994 38.6927 9.26394C44.4997 11.2729 49.1747 15.4229 51.8597 20.9489C54.5437 26.4749 54.9157 32.7159 52.9067 38.5219C49.7007 47.7849 40.9677 54.0069 31.1737 54.0069Z" fill="#C2CDE7"/>
<path d="M44.6899 14H46.0659C46.6309 19.532 43.5819 26.857 37.5979 32.841C36.9989 33.515 36.4459 34.096 35.8449 34.642C35.2599 35.173 34.8909 35.906 34.8489 36.694C34.6359 40.701 33.3389 43.768 30.3649 46.742L28.1069 49V38.839L25.8929 39.577C25.1739 39.817 24.3819 39.63 23.8459 39.094L21.0779 36.326C20.5419 35.79 20.3549 34.998 20.5949 34.279L21.3329 32.065H11.1719L13.4299 29.807C16.4219 26.815 19.5089 25.52 23.5519 25.319C24.3139 25.281 25.0319 24.934 25.5559 24.38C26.1429 23.759 26.7139 23.191 27.3309 22.575C32.8639 17.041 39.3839 14 44.6899 14Z" fill="#ACB7D0"/>
<path d="M36.1719 21C35.3762 21 34.6132 21.3161 34.0506 21.8787C33.4879 22.4413 33.1719 23.2044 33.1719 24C33.1719 24.7956 33.4879 25.5587 34.0506 26.1213C34.6132 26.6839 35.3762 27 36.1719 27C36.9675 27 37.7306 26.6839 38.2932 26.1213C38.8558 25.5587 39.1719 24.7956 39.1719 24C39.1719 23.2044 38.8558 22.4413 38.2932 21.8787C37.7306 21.3161 36.9675 21 36.1719 21Z" fill="#FAEFDE"/>
<path d="M18.5807 38.998C18.9707 40.225 19.8917 41.232 21.0927 41.693C21.4287 41.822 21.6547 41.943 21.6007 42.022C21.3337 42.417 21.0197 42.806 20.7107 43.115C19.0827 44.743 16.9597 45.448 14.9257 45.245C14.8237 43.211 15.5237 41.087 17.1507 39.46C17.4787 39.132 17.8977 38.798 18.3167 38.521C18.3857 38.475 18.4807 38.683 18.5807 38.998Z" fill="#ACB7D0"/>
<path d="M59.6007 25.27C56.8817 11.783 44.9387 1.995 31.2007 1.995C29.2797 1.995 27.3417 2.189 25.4417 2.572C9.7667 5.731 -0.416305 21.055 2.7427 36.73C5.4617 50.217 17.4047 60.005 31.1427 60.005C33.0637 60.005 35.0017 59.811 36.9017 59.428C52.5767 56.269 62.7597 40.945 59.6007 25.27ZM36.5057 57.468C34.7357 57.825 32.9307 58.006 31.1417 58.006C18.3527 58.006 7.2337 48.892 4.7037 36.335C1.7627 21.74 11.2427 7.474 25.8377 4.532C27.6077 4.175 29.4127 3.994 31.2017 3.994C43.9907 3.994 55.1097 13.108 57.6397 25.665C60.5807 40.26 51.1007 54.526 36.5057 57.468Z" fill="black"/>
<path d="M33.9821 9.39596C34.7331 9.51596 35.4861 9.67996 36.2211 9.88196C36.3101 9.90696 36.3991 9.91896 36.4871 9.91896C36.9261 9.91896 37.3281 9.62696 37.4501 9.18396C37.5971 8.65196 37.2841 8.10096 36.7521 7.95496C35.9471 7.73296 35.1211 7.55396 34.2971 7.42196C33.7531 7.32996 33.2391 7.70596 33.1521 8.25196C33.0651 8.79596 33.4371 9.30896 33.9821 9.39596ZM15.7051 15C15.9491 15 16.1931 14.912 16.3851 14.733C20.0441 11.337 24.8221 9.35496 29.8391 9.15296C30.3911 9.13096 30.8201 8.66596 30.7981 8.11396C30.7761 7.56296 30.3331 7.14496 29.7591 7.15496C24.2651 7.37496 19.0331 9.54596 15.0251 13.267C14.6201 13.643 14.5971 14.276 14.9721 14.68C15.1701 14.892 15.4371 15 15.7051 15ZM38.3041 33.548C44.3271 27.526 47.6821 19.996 47.0591 13.899C47.0081 13.388 46.5781 13 46.0651 13H44.6891C38.9291 13 32.1751 16.314 26.6231 21.867L26.4841 22.006C25.9131 22.576 25.3791 23.111 24.8281 23.693C24.4741 24.068 23.9901 24.297 23.5001 24.321C19.1341 24.537 15.8101 26.012 12.7211 29.101L10.4631 31.359C10.1771 31.645 10.0911 32.075 10.2461 32.449C10.4011 32.823 10.7661 33.066 11.1701 33.066H19.9441L19.6451 33.964C19.2831 35.049 19.5611 36.226 20.3701 37.034L23.1381 39.802C23.9331 40.597 25.1421 40.882 26.2081 40.527L27.1061 40.228V49C27.1061 49.404 27.3501 49.769 27.7231 49.924C27.8481 49.975 27.9781 50 28.1071 50C28.3671 50 28.6231 49.898 28.8141 49.707L31.0721 47.449C34.1451 44.377 35.6181 41.076 35.8481 36.747C35.8751 36.234 36.1131 35.749 36.5171 35.382C37.0901 34.862 37.6541 34.283 38.3041 33.548ZM35.1721 33.901C34.3751 34.625 33.9061 35.597 33.8501 36.64C33.6451 40.491 32.3921 43.3 29.6571 46.034L29.1061 46.585V38.838C29.1061 38.517 28.9521 38.215 28.6911 38.027C28.5181 37.902 28.3131 37.838 28.1061 37.838C28.0001 37.838 27.8931 37.855 27.7901 37.889L25.5751 38.627C25.2211 38.747 24.8171 38.651 24.5521 38.386L21.7841 35.618C21.5141 35.348 21.4221 34.956 21.5431 34.594L22.2811 32.38C22.3831 32.075 22.3311 31.74 22.1431 31.479C21.9551 31.218 21.6531 31.064 21.3321 31.064H13.5851L14.1361 30.513C16.8851 27.764 19.7151 26.509 23.6001 26.317C24.6141 26.267 25.5661 25.822 26.2811 25.066C26.8181 24.499 27.3411 23.977 27.8981 23.419L28.0371 23.28C33.2221 18.096 39.4471 15 44.6891 15H45.1271C45.2691 20.296 42.1111 26.913 36.8491 32.177C36.2081 32.899 35.6911 33.431 35.1721 33.901Z" fill="black"/>
<path d="M40.1718 24C40.1718 21.794 38.3778 20 36.1718 20C33.9658 20 32.1718 21.794 32.1718 24C32.1718 26.206 33.9658 28 36.1718 28C38.3778 28 40.1718 26.206 40.1718 24ZM36.1718 26.25C34.9308 26.25 33.9218 25.241 33.9218 24C33.9218 22.759 34.9308 21.75 36.1718 21.75C37.4128 21.75 38.4218 22.759 38.4218 24C38.4218 25.241 37.4128 26.25 36.1718 26.25ZM21.4508 40.759C20.5518 40.414 19.8348 39.643 19.5338 38.696C19.4118 38.312 19.1588 37.514 18.3368 37.514C18.1408 37.514 17.9298 37.577 17.7658 37.685C17.2818 38.005 16.8128 38.383 16.4438 38.752C14.7228 40.473 13.8048 42.857 13.9268 45.294C13.9508 45.788 14.3338 46.19 14.8258 46.239C15.0868 46.265 15.3478 46.278 15.6108 46.278C17.7708 46.278 19.8338 45.405 21.4188 43.821C21.7638 43.475 22.1228 43.035 22.4308 42.581C22.6008 42.328 22.6528 41.972 22.5608 41.681C22.3968 41.16 21.9228 40.94 21.4508 40.759ZM20.0048 42.408C18.8798 43.533 17.4468 44.186 15.9408 44.269C16.0728 42.719 16.7368 41.288 17.8578 40.166C17.8868 40.138 17.9158 40.109 17.9468 40.08C18.4238 41.025 19.1758 41.813 20.0878 42.323C20.0598 42.352 20.0318 42.38 20.0048 42.408Z" fill="black"/>
</g>
<defs>
<clipPath id="clip0_247_1272">
<rect width="64" height="64" fill="white" transform="translate(0.171875)"/>
</clipPath>
</defs>
</svg>
