<svg width="65" height="64" viewBox="0 0 65 64" fill="none" xmlns="http://www.w3.org/2000/svg">
<path d="M57.1719 13V51C57.1719 54.31 54.4819 57 51.1719 57H13.1719C9.86188 57 7.17188 54.31 7.17188 51V13C7.17188 9.69 9.86188 7 13.1719 7H51.1719C54.4819 7 57.1719 9.69 57.1719 13Z" fill="#ACB7D0"/>
<path d="M32.1719 57.5C31.8959 57.5 31.6719 57.276 31.6719 57V7C31.6719 6.724 31.8959 6.5 32.1719 6.5C32.4479 6.5 32.6719 6.724 32.6719 7V57C32.6719 57.276 32.4479 57.5 32.1719 57.5Z" fill="#C2CDE7"/>
<path d="M23.1719 57.5C22.8959 57.5 22.6719 57.276 22.6719 57V7C22.6719 6.724 22.8959 6.5 23.1719 6.5C23.4479 6.5 23.6719 6.724 23.6719 7V57C23.6719 57.276 23.4479 57.5 23.1719 57.5Z" fill="#C2CDE7"/>
<path d="M50.1719 57.5C49.8959 57.5 49.6719 57.276 49.6719 57V7C49.6719 6.724 49.8959 6.5 50.1719 6.5C50.4479 6.5 50.6719 6.724 50.6719 7V57C50.6719 57.276 50.4479 57.5 50.1719 57.5Z" fill="#C2CDE7"/>
<path d="M14.1719 57.5C13.8959 57.5 13.6719 57.276 13.6719 57V7C13.6719 6.724 13.8959 6.5 14.1719 6.5C14.4479 6.5 14.6719 6.724 14.6719 7V57C14.6719 57.276 14.4479 57.5 14.1719 57.5Z" fill="#C2CDE7"/>
<path d="M32.1723 38C31.9773 38 31.7833 37.942 31.6173 37.832L28.6173 35.832C28.4563 35.725 28.3293 35.572 28.2533 35.394L26.1383 30.46L24.0803 34.919C23.9493 35.201 23.6953 35.407 23.3923 35.476C23.0933 35.545 22.7713 35.468 22.5323 35.269L20.3413 33.443L17.9723 36.6C17.8503 36.763 17.6813 36.885 17.4893 36.949L14.4893 37.949C14.2973 38.013 14.0913 38.017 13.8983 37.963L6.89825 35.963C6.36725 35.811 6.05925 35.257 6.21025 34.727C6.36225 34.195 6.92125 33.895 7.44625 34.039L14.1493 35.954L16.5593 35.151L19.3723 31.4C19.5363 31.18 19.7833 31.038 20.0563 31.006C20.3323 30.973 20.6033 31.056 20.8133 31.231L22.8113 32.897L25.2643 27.581C25.4313 27.222 25.7873 27.036 26.1863 27C26.5823 27.006 26.9363 27.243 27.0913 27.606L29.9743 34.333L31.8543 35.586L34.3153 31.485C34.4653 31.234 34.7193 31.061 35.0083 31.013L37.4263 30.61L40.2293 22.667C40.3673 22.278 40.7283 22.014 41.1393 22.001C41.5883 21.952 41.9293 22.228 42.0913 22.606L44.6173 28.501L46.6173 27.168C46.8463 27.017 47.1243 26.965 47.3913 27.024C47.6583 27.084 47.8883 27.251 48.0293 27.485L50.1313 30.987L52.2943 27.021C52.3513 26.917 52.4253 26.825 52.5143 26.747L56.5143 23.247C56.9283 22.884 57.5593 22.924 57.9253 23.342C58.2883 23.757 58.2463 24.389 57.8303 24.753L53.9653 28.135L51.0503 33.479C50.8783 33.794 50.5513 33.993 50.1933 34C49.8563 34.009 49.5003 33.823 49.3153 33.515L46.8543 29.414L44.7273 30.832C44.4803 30.997 44.1733 31.043 43.8873 30.959C43.6033 30.874 43.3703 30.667 43.2533 30.394L41.2623 25.749L39.1163 31.833C38.9953 32.176 38.6963 32.427 38.3373 32.486L35.7923 32.91L33.0293 37.514C32.8883 37.748 32.6583 37.915 32.3913 37.975C32.3183 37.992 32.2453 38 32.1723 38Z" fill="black"/>
<path d="M41.1719 57.5C40.8959 57.5 40.6719 57.276 40.6719 57V7C40.6719 6.724 40.8959 6.5 41.1719 6.5C41.4479 6.5 41.6719 6.724 41.6719 7V57C41.6719 57.276 41.4479 57.5 41.1719 57.5Z" fill="#FAEFDE"/>
<path d="M51.1719 58H13.1719C9.31288 58 6.17188 54.859 6.17188 51V13C6.17188 9.141 9.31288 6 13.1719 6H51.1719C55.0309 6 58.1719 9.141 58.1719 13V51C58.1719 54.859 55.0309 58 51.1719 58ZM13.1719 8C10.4149 8 8.17188 10.243 8.17188 13V51C8.17188 53.757 10.4149 56 13.1719 56H51.1719C53.9289 56 56.1719 53.757 56.1719 51V13C56.1719 10.243 53.9289 8 51.1719 8H13.1719Z" fill="black"/>
<path d="M41.1719 26C42.8287 26 44.1719 24.6569 44.1719 23C44.1719 21.3431 42.8287 20 41.1719 20C39.515 20 38.1719 21.3431 38.1719 23C38.1719 24.6569 39.515 26 41.1719 26Z" fill="#FAEFDE"/>
<path d="M41.1719 27C38.9659 27 37.1719 25.206 37.1719 23C37.1719 20.794 38.9659 19 41.1719 19C43.3779 19 45.1719 20.794 45.1719 23C45.1719 25.206 43.3779 27 41.1719 27ZM41.1719 21C40.0689 21 39.1719 21.897 39.1719 23C39.1719 24.103 40.0689 25 41.1719 25C42.2749 25 43.1719 24.103 43.1719 23C43.1719 21.897 42.2749 21 41.1719 21Z" fill="black"/>
</svg>
