<svg width="64" height="64" viewBox="0 0 64 64" fill="none" xmlns="http://www.w3.org/2000/svg">
<path d="M58 13L24 47L8 31L4 35L20 51L24 55L28 51L62 17L58 13Z" fill="#FAEFDE"/>
<path d="M23.9995 50.0799C23.6708 50.0811 23.3453 50.0172 23.0415 49.8919C22.7377 49.7666 22.4617 49.5824 22.2295 49.3499L5.93945 33.0599L8.05945 30.9399L23.9995 46.8799L57.9395 12.9399L60.0595 15.0599L25.7695 49.3499C25.5372 49.5824 25.2612 49.7666 24.9574 49.8919C24.6536 50.0172 24.3281 50.0811 23.9995 50.0799Z" fill="#FAEFDE"/>
<path d="M62.7106 16.2898L58.7106 12.2898C58.5232 12.1036 58.2697 11.999 58.0056 11.999C57.7414 11.999 57.4879 12.1036 57.3006 12.2898L24.0006 45.5898L8.71056 30.2898C8.5232 30.1036 8.26974 29.999 8.00556 29.999C7.74137 29.999 7.48792 30.1036 7.30056 30.2898L3.30056 34.2898C3.11431 34.4772 3.00977 34.7306 3.00977 34.9948C3.00977 35.259 3.11431 35.5125 3.30056 35.6998L23.3006 55.6998C23.4879 55.8861 23.7414 55.9906 24.0056 55.9906C24.2697 55.9906 24.5232 55.8861 24.7106 55.6998L62.7106 17.6998C62.8968 17.5125 63.0014 17.259 63.0014 16.9948C63.0014 16.7306 62.8968 16.4772 62.7106 16.2898ZM24.0006 53.5898L5.41056 34.9998L8.00056 32.4098L23.2906 47.7098C23.4779 47.8961 23.7314 48.0006 23.9956 48.0006C24.2597 48.0006 24.5132 47.8961 24.7006 47.7098L58.0006 14.4098L60.5906 16.9998L24.0006 53.5898Z" fill="#FAEFDE"/>
</svg>
