<svg width="120" height="120" viewBox="0 0 120 120" fill="none" xmlns="http://www.w3.org/2000/svg">
<rect width="120" height="120" rx="60" fill="#313B43"/>
<path d="M13 64L30 56L37 58L44 56L61 64C64.067 65.2 66 69.167 66 72.46V80C66 81.105 65.105 82 64 82H10C8.895 82 8 81.105 8 80V72.46C8 69.167 9.933 65.2 13 64Z" fill="#C2CDE7"/>
<path d="M37 68C42.16 68 48 65 51 59L44 56L37 58L31 56L23 59C25.926 63.076 31.84 68 37 68Z" fill="#C2CDE7"/>
<path d="M64 83.0002H10C8.346 83.0002 7 81.6542 7 80.0002V72.3282C7 68.0992 9.469 64.1972 13.291 62.3872L29.855 54.9692L37 55.9902L44.145 54.9692L60.689 62.3782C64.531 64.1972 67 68.1002 67 72.3282V80.0002C67 81.6542 65.654 83.0002 64 83.0002ZM14.138 64.1992C11.016 65.6822 9 68.8722 9 72.3282V80.0002C9 80.5512 9.449 81.0002 10 81.0002H64C64.551 81.0002 65 80.5512 65 80.0002V72.3282C65 68.8682 62.979 65.6762 59.853 64.1952L43.855 57.0312L37 58.0102L30.145 57.0312L14.138 64.1992Z" fill="black"/>
<path d="M49.921 42.612C49.697 40.268 49.061 37.776 49.364 36.664C49.553 35.97 49 36 52 37C48 27 42.839 26 37 26C33.609 26 31.088 26.584 29 28C24.438 28 23.844 35.205 23.775 42.134C22.69 41.721 22 42.543 22 44C22 45.578 23.011 48.931 25 50C26.529 57.461 32 62 37 62C42 62 47 57 49 50C51.22 49.056 52 45.643 52 44C52 42.273 51.306 41.532 49.921 42.612Z" fill="#FAEFDE"/>
<path d="M31 34C34 36 40.353 37 43 37C46.888 37 47 37 49 37C49 37 51 36 52 37C49 28 42.058 26 39 26H35C33.388 26 31 27 30 28C27.195 27.104 24 30.492 24 35V41C27 40 30 35 31 34Z" fill="#CDA1A7"/>
<path d="M32.9197 35.8798C35.7837 37.2698 38.9257 37.9948 42.1097 37.9998H44.6597C45.2117 37.9998 45.6597 37.5518 45.6597 36.9998C45.6597 36.4478 45.2117 35.9998 44.6597 35.9998H42.1097C39.2267 35.9958 36.3827 35.3388 33.7897 34.0798L32.2297 33.3198C31.3247 32.8778 30.2317 33.1778 29.6797 34.0198L28.0797 36.4498C27.7837 36.9158 27.9217 37.5338 28.3877 37.8298C28.8427 38.1188 29.4457 37.9948 29.7497 37.5498L31.3497 35.1198L32.9197 35.8798Z" fill="black"/>
<path d="M51.2808 41.12C51.1398 41.084 50.9958 41.064 50.8508 41.06C50.6788 39.881 50.3708 38.727 49.9308 37.62V37.51C50.4048 37.567 50.8688 37.688 51.3108 37.87C51.8208 38.082 52.4058 37.84 52.6178 37.33C52.6968 37.14 52.7148 36.93 52.6708 36.73C51.0008 29.41 45.5608 25 38.0008 25H37.0008C34.4308 25.011 31.9088 25.701 29.6908 27C26.0008 27.14 23.4208 29.76 23.0008 33.9C22.8158 35.765 22.8598 37.646 23.1308 39.5C23.1848 39.831 23.2148 40.165 23.2208 40.5C23.2208 40.687 23.1908 40.873 23.1308 41.06C22.9828 41.064 22.8348 41.084 22.6908 41.12C21.0408 41.56 20.3508 43.97 21.0908 46.73C21.6308 48.73 22.7508 50.23 23.9708 50.73C24.5938 52.588 25.4508 54.358 26.5208 56L26.5178 56.002C26.8218 56.618 27.7008 57.68 27.7008 57.68C30.1608 60.79 33.4008 63 37.0008 63C40.5848 63 43.8118 60.808 46.2678 57.729C46.6358 57.271 47.4808 56 47.4808 56C48.5398 54.357 49.3868 52.586 50.0008 50.73C51.2308 50.27 52.3508 48.73 52.8808 46.73C53.6208 43.98 52.8808 41.57 51.2808 41.12ZM50.9508 46.25C50.4508 48.1 49.5108 48.87 49.2208 48.87C48.7618 48.852 48.3488 49.149 48.2208 49.59C46.5908 55.26 42.1808 61 37.0008 61C31.8208 61 27.4108 55.26 25.7208 49.6C25.5978 49.177 25.2118 48.884 24.7708 48.88H24.7508C24.4608 48.88 23.5108 48.1 23.0208 46.26C22.5308 44.42 22.9708 43.17 23.2008 43.11C23.2998 43.127 23.3918 43.168 23.4708 43.23C23.9388 43.523 24.5558 43.382 24.8488 42.914C24.9398 42.768 24.9918 42.602 25.0008 42.43C25.0248 41.914 25.0818 41.399 25.1708 40.89C25.2228 40.342 25.1958 39.79 25.0908 39.25C24.8518 37.543 24.8218 35.814 25.0008 34.1C25.3108 30.91 27.1908 29 30.0008 29C30.2168 29 30.4278 28.93 30.6008 28.8C32.5238 27.613 34.7408 26.99 37.0008 27H38.0008C44.0708 27 48.4508 30.1 50.2508 35.58C49.5778 35.449 48.8808 35.625 48.3508 36.06C47.7748 36.687 47.6578 37.61 48.0608 38.36C48.5938 39.654 48.8988 41.032 48.9608 42.43C48.9888 42.982 49.4588 43.406 50.0098 43.378C50.1838 43.369 50.3538 43.315 50.4998 43.22C50.5798 43.16 50.6718 43.119 50.7698 43.1C51.0108 43.18 51.4508 44.4 50.9508 46.25Z" fill="black"/>
<path d="M59 64L76 56L83 58L90 56L107 64C110.067 65.2 112 69.167 112 72.46V80C112 81.105 111.105 82 110 82H56C54.895 82 54 81.105 54 80V72.46C54 69.167 55.933 65.2 59 64Z" fill="#C2CDE7"/>
<path d="M83 68C88.16 68 94 65 97 59L90 56L83 58L77 56L69 59C71.926 63.076 77.84 68 83 68Z" fill="#C2CDE7"/>
<path d="M110 83.0002H56C54.346 83.0002 53 81.6542 53 80.0002V72.3282C53 68.0992 55.469 64.1972 59.291 62.3872L75.855 54.9692L83 55.9902L90.145 54.9692L106.689 62.3782C110.531 64.1972 113 68.1002 113 72.3282V80.0002C113 81.6542 111.654 83.0002 110 83.0002ZM60.138 64.1992C57.016 65.6822 55 68.8722 55 72.3282V80.0002C55 80.5512 55.449 81.0002 56 81.0002H110C110.551 81.0002 111 80.5512 111 80.0002V72.3282C111 68.8682 108.979 65.6762 105.853 64.1952L89.855 57.0312L83 58.0102L76.145 57.0312L60.138 64.1992Z" fill="black"/>
<path d="M95.921 42.612C95.697 40.268 95.061 37.776 95.364 36.664C95.553 35.97 95 36 98 37C94 27 88.839 26 83 26C79.609 26 77.088 26.584 75 28C70.438 28 69.844 35.205 69.775 42.134C68.69 41.721 68 42.543 68 44C68 45.578 69.011 48.931 71 50C72.529 57.461 78 62 83 62C88 62 93 57 95 50C97.22 49.056 98 45.643 98 44C98 42.273 97.306 41.532 95.921 42.612Z" fill="#FAEFDE"/>
<path d="M77 34C80 36 86.353 37 89 37C92.888 37 93 37 95 37C95 37 97 36 98 37C95 28 88.058 26 85 26H81C79.388 26 77 27 76 28C73.195 27.104 70 30.492 70 35V41C73 40 76 35 77 34Z" fill="#CDA1A7"/>
<path d="M78.9197 35.8798C81.7837 37.2698 84.9257 37.9948 88.1097 37.9998H90.6597C91.2117 37.9998 91.6597 37.5518 91.6597 36.9998C91.6597 36.4478 91.2117 35.9998 90.6597 35.9998H88.1097C85.2267 35.9958 82.3827 35.3388 79.7897 34.0798L78.2297 33.3198C77.3247 32.8778 76.2317 33.1778 75.6797 34.0198L74.0797 36.4498C73.7837 36.9158 73.9217 37.5338 74.3877 37.8298C74.8427 38.1188 75.4457 37.9948 75.7497 37.5498L77.3497 35.1198L78.9197 35.8798Z" fill="black"/>
<path d="M97.2808 41.12C97.1398 41.084 96.9958 41.064 96.8508 41.06C96.6788 39.881 96.3708 38.727 95.9308 37.62V37.51C96.4048 37.567 96.8688 37.688 97.3108 37.87C97.8208 38.082 98.4058 37.84 98.6178 37.33C98.6968 37.14 98.7148 36.93 98.6708 36.73C97.0008 29.41 91.5608 25 84.0008 25H83.0008C80.4308 25.011 77.9088 25.701 75.6908 27C72.0008 27.14 69.4208 29.76 69.0008 33.9C68.8158 35.765 68.8598 37.646 69.1308 39.5C69.1848 39.831 69.2148 40.165 69.2208 40.5C69.2208 40.687 69.1908 40.873 69.1308 41.06C68.9828 41.064 68.8348 41.084 68.6908 41.12C67.0408 41.56 66.3508 43.97 67.0908 46.73C67.6308 48.73 68.7508 50.23 69.9708 50.73C70.5938 52.588 71.4508 54.358 72.5208 56L72.5178 56.002C72.8218 56.618 73.7008 57.68 73.7008 57.68C76.1608 60.79 79.4008 63 83.0008 63C86.5848 63 89.8118 60.808 92.2678 57.729C92.6358 57.271 93.4808 56 93.4808 56C94.5398 54.357 95.3868 52.586 96.0008 50.73C97.2308 50.27 98.3508 48.73 98.8808 46.73C99.6208 43.98 98.8808 41.57 97.2808 41.12ZM96.9508 46.25C96.4508 48.1 95.5108 48.87 95.2208 48.87C94.7618 48.852 94.3488 49.149 94.2208 49.59C92.5908 55.26 88.1808 61 83.0008 61C77.8208 61 73.4108 55.26 71.7208 49.6C71.5978 49.177 71.2118 48.884 70.7708 48.88H70.7508C70.4608 48.88 69.5108 48.1 69.0208 46.26C68.5308 44.42 68.9708 43.17 69.2008 43.11C69.2998 43.127 69.3918 43.168 69.4708 43.23C69.9388 43.523 70.5558 43.382 70.8488 42.914C70.9398 42.768 70.9918 42.602 71.0008 42.43C71.0248 41.914 71.0818 41.399 71.1708 40.89C71.2228 40.342 71.1958 39.79 71.0908 39.25C70.8518 37.543 70.8218 35.814 71.0008 34.1C71.3108 30.91 73.1908 29 76.0008 29C76.2168 29 76.4278 28.93 76.6008 28.8C78.5238 27.613 80.7408 26.99 83.0008 27H84.0008C90.0708 27 94.4508 30.1 96.2508 35.58C95.5778 35.449 94.8808 35.625 94.3508 36.06C93.7748 36.687 93.6578 37.61 94.0608 38.36C94.5938 39.654 94.8988 41.032 94.9608 42.43C94.9888 42.982 95.4588 43.406 96.0098 43.378C96.1838 43.369 96.3538 43.315 96.4998 43.22C96.5798 43.16 96.6718 43.119 96.7698 43.1C97.0108 43.18 97.4508 44.4 96.9508 46.25Z" fill="black"/>
<path d="M36 69L53 61L60 63L67 61L84 69C87.067 70.2 89 74.167 89 77.46V85C89 86.105 88.105 87 87 87H33C31.895 87 31 86.105 31 85V77.46C31 74.167 32.933 70.2 36 69Z" fill="#C2CDE7"/>
<path d="M60 73C65.16 73 71 70 74 64L67 61L60 63L54 61L46 64C48.926 68.076 54.84 73 60 73Z" fill="#C2CDE7"/>
<path d="M87 88.0002H33C31.346 88.0002 30 86.6542 30 85.0002V77.3282C30 73.0992 32.469 69.1972 36.291 67.3872L52.855 59.9692L60 60.9902L67.145 59.9692L83.689 67.3782C87.531 69.1972 90 73.1002 90 77.3282V85.0002C90 86.6542 88.654 88.0002 87 88.0002ZM37.138 69.1992C34.016 70.6822 32 73.8722 32 77.3282V85.0002C32 85.5512 32.449 86.0002 33 86.0002H87C87.551 86.0002 88 85.5512 88 85.0002V77.3282C88 73.8682 85.979 70.6762 82.853 69.1952L66.855 62.0312L60 63.0102L53.145 62.0312L37.138 69.1992Z" fill="black"/>
<path d="M72.921 47.612C72.697 45.268 72.061 42.776 72.364 41.664C72.553 40.97 72 41 75 42C71 32 65.839 31 60 31C56.609 31 54.088 31.584 52 33C47.438 33 46.844 40.205 46.775 47.134C45.69 46.721 45 47.543 45 49C45 50.578 46.011 53.931 48 55C49.529 62.461 55 67 60 67C65 67 70 62 72 55C74.22 54.056 75 50.643 75 49C75 47.273 74.306 46.532 72.921 47.612Z" fill="#FAEFDE"/>
<path d="M54 39C57 41 63.353 42 66 42C69.888 42 70 42 72 42C72 42 74 41 75 42C72 33 65.058 31 62 31H58C56.388 31 54 32 53 33C50.195 32.104 47 35.492 47 40V46C50 45 53 40 54 39Z" fill="#CDA1A7"/>
<path d="M55.9197 40.8798C58.7837 42.2698 61.9257 42.9948 65.1097 42.9998H67.6597C68.2117 42.9998 68.6597 42.5518 68.6597 41.9998C68.6597 41.4478 68.2117 40.9998 67.6597 40.9998H65.1097C62.2267 40.9958 59.3827 40.3388 56.7897 39.0798L55.2297 38.3198C54.3247 37.8778 53.2317 38.1778 52.6797 39.0198L51.0797 41.4498C50.7837 41.9158 50.9217 42.5338 51.3877 42.8298C51.8427 43.1188 52.4457 42.9948 52.7497 42.5498L54.3497 40.1198L55.9197 40.8798Z" fill="black"/>
<path d="M74.2808 46.12C74.1398 46.084 73.9958 46.064 73.8508 46.06C73.6788 44.881 73.3708 43.727 72.9308 42.62V42.51C73.4048 42.567 73.8688 42.688 74.3108 42.87C74.8208 43.082 75.4058 42.84 75.6178 42.33C75.6968 42.14 75.7148 41.93 75.6708 41.73C74.0008 34.41 68.5608 30 61.0008 30H60.0008C57.4308 30.011 54.9088 30.701 52.6908 32C49.0008 32.14 46.4208 34.76 46.0008 38.9C45.8158 40.765 45.8598 42.646 46.1308 44.5C46.1848 44.831 46.2148 45.165 46.2208 45.5C46.2208 45.687 46.1908 45.873 46.1308 46.06C45.9828 46.064 45.8348 46.084 45.6908 46.12C44.0408 46.56 43.3508 48.97 44.0908 51.73C44.6308 53.73 45.7508 55.23 46.9708 55.73C47.5938 57.588 48.4508 59.358 49.5208 61L49.5178 61.002C49.8218 61.618 50.7008 62.68 50.7008 62.68C53.1608 65.79 56.4008 68 60.0008 68C63.5848 68 66.8118 65.808 69.2678 62.729C69.6358 62.271 70.4808 61 70.4808 61C71.5398 59.357 72.3868 57.586 73.0008 55.73C74.2308 55.27 75.3508 53.73 75.8808 51.73C76.6208 48.98 75.8808 46.57 74.2808 46.12ZM73.9508 51.25C73.4508 53.1 72.5108 53.87 72.2208 53.87C71.7618 53.852 71.3488 54.149 71.2208 54.59C69.5908 60.26 65.1808 66 60.0008 66C54.8208 66 50.4108 60.26 48.7208 54.6C48.5978 54.177 48.2118 53.884 47.7708 53.88H47.7508C47.4608 53.88 46.5108 53.1 46.0208 51.26C45.5308 49.42 45.9708 48.17 46.2008 48.11C46.2998 48.127 46.3918 48.168 46.4708 48.23C46.9388 48.523 47.5558 48.382 47.8488 47.914C47.9398 47.768 47.9918 47.602 48.0008 47.43C48.0248 46.914 48.0818 46.399 48.1708 45.89C48.2228 45.342 48.1958 44.79 48.0908 44.25C47.8518 42.543 47.8218 40.814 48.0008 39.1C48.3108 35.91 50.1908 34 53.0008 34C53.2168 34 53.4278 33.93 53.6008 33.8C55.5238 32.613 57.7408 31.99 60.0008 32H61.0008C67.0708 32 71.4508 35.1 73.2508 40.58C72.5778 40.449 71.8808 40.625 71.3508 41.06C70.7748 41.687 70.6578 42.61 71.0608 43.36C71.5938 44.654 71.8988 46.032 71.9608 47.43C71.9888 47.982 72.4588 48.406 73.0098 48.378C73.1838 48.369 73.3538 48.315 73.4998 48.22C73.5798 48.16 73.6718 48.119 73.7698 48.1C74.0108 48.18 74.4508 49.4 73.9508 51.25Z" fill="black"/>
</svg>
