<svg width="64" height="64" viewBox="0 0 64 64" fill="none" xmlns="http://www.w3.org/2000/svg">
<path d="M51 25H59C59.5304 25 60.0391 25.2107 60.4142 25.5858C60.7893 25.9609 61 26.4696 61 27V53C61 54.5913 60.3679 56.1174 59.2426 57.2426C58.1174 58.3679 56.5913 59 55 59C53.4087 59 51.8826 58.3679 50.7574 57.2426C49.6321 56.1174 49 54.5913 49 53V27C49 26.4696 49.2107 25.9609 49.5858 25.5858C49.9609 25.2107 50.4696 25 51 25Z" fill="#ACB7D0"/>
<path d="M52 59H11C9.4087 59 7.88258 58.3679 6.75736 57.2426C5.63214 56.1174 5 54.5913 5 53V8C5 7.20435 5.31607 6.44129 5.87868 5.87868C6.44129 5.31607 7.20435 5 8 5H46C46.7957 5 47.5587 5.31607 48.1213 5.87868C48.6839 6.44129 49 7.20435 49 8V56L52 59Z" fill="#C2CDE7"/>
<path d="M47 5H7C5.89543 5 5 5.89543 5 7C5 8.10457 5.89543 9 7 9H47C48.1046 9 49 8.10457 49 7C49 5.89543 48.1046 5 47 5Z" fill="#C2CDE7"/>
<path d="M49 49H5V53C5 54.5913 5.63214 56.1174 6.75736 57.2426C7.88258 58.3679 9.4087 59 11 59H52L49 56V49Z" fill="#C2CDE7"/>
<path d="M33 14H39C39.2652 14 39.5196 13.8946 39.7071 13.7071C39.8946 13.5196 40 13.2652 40 13C40 12.7348 39.8946 12.4804 39.7071 12.2929C39.5196 12.1054 39.2652 12 39 12H33C32.7348 12 32.4804 12.1054 32.2929 12.2929C32.1054 12.4804 32 12.7348 32 13C32 13.2652 32.1054 13.5196 32.2929 13.7071C32.4804 13.8946 32.7348 14 33 14ZM13 14H29C29.2652 14 29.5196 13.8946 29.7071 13.7071C29.8946 13.5196 30 13.2652 30 13C30 12.7348 29.8946 12.4804 29.7071 12.2929C29.5196 12.1054 29.2652 12 29 12H13C12.7348 12 12.4804 12.1054 12.2929 12.2929C12.1054 12.4804 12 12.7348 12 13C12 13.2652 12.1054 13.5196 12.2929 13.7071C12.4804 13.8946 12.7348 14 13 14ZM23 16H13C12.7348 16 12.4804 16.1054 12.2929 16.2929C12.1054 16.4804 12 16.7348 12 17C12 17.2652 12.1054 17.5196 12.2929 17.7071C12.4804 17.8946 12.7348 18 13 18H23C23.2652 18 23.5196 17.8946 23.7071 17.7071C23.8946 17.5196 24 17.2652 24 17C24 16.7348 23.8946 16.4804 23.7071 16.2929C23.5196 16.1054 23.2652 16 23 16Z" fill="black"/>
<path d="M23 24H13C12.7348 24 12.4804 24.1054 12.2929 24.2929C12.1054 24.4804 12 24.7348 12 25C12 25.2652 12.1054 25.5196 12.2929 25.7071C12.4804 25.8946 12.7348 26 13 26H23C23.2652 26 23.5196 25.8946 23.7071 25.7071C23.8946 25.5196 24 25.2652 24 25C24 24.7348 23.8946 24.4804 23.7071 24.2929C23.5196 24.1054 23.2652 24 23 24ZM23 28H13C12.7348 28 12.4804 28.1054 12.2929 28.2929C12.1054 28.4804 12 28.7348 12 29C12 29.2652 12.1054 29.5196 12.2929 29.7071C12.4804 29.8946 12.7348 30 13 30H23C23.2652 30 23.5196 29.8946 23.7071 29.7071C23.8946 29.5196 24 29.2652 24 29C24 28.7348 23.8946 28.4804 23.7071 28.2929C23.5196 28.1054 23.2652 28 23 28ZM23 32H13C12.7348 32 12.4804 32.1054 12.2929 32.2929C12.1054 32.4804 12 32.7348 12 33C12 33.2652 12.1054 33.5196 12.2929 33.7071C12.4804 33.8946 12.7348 34 13 34H23C23.2652 34 23.5196 33.8946 23.7071 33.7071C23.8946 33.5196 24 33.2652 24 33C24 32.7348 23.8946 32.4804 23.7071 32.2929C23.5196 32.1054 23.2652 32 23 32ZM23 36H13C12.7348 36 12.4804 36.1054 12.2929 36.2929C12.1054 36.4804 12 36.7348 12 37C12 37.2652 12.1054 37.5196 12.2929 37.7071C12.4804 37.8946 12.7348 38 13 38H23C23.2652 38 23.5196 37.8946 23.7071 37.7071C23.8946 37.5196 24 37.2652 24 37C24 36.7348 23.8946 36.4804 23.7071 36.2929C23.5196 36.1054 23.2652 36 23 36ZM23 40H13C12.7348 40 12.4804 40.1054 12.2929 40.2929C12.1054 40.4804 12 40.7348 12 41C12 41.2652 12.1054 41.5196 12.2929 41.7071C12.4804 41.8946 12.7348 42 13 42H23C23.2652 42 23.5196 41.8946 23.7071 41.7071C23.8946 41.5196 24 41.2652 24 41C24 40.7348 23.8946 40.4804 23.7071 40.2929C23.5196 40.1054 23.2652 40 23 40ZM39 24H29C28.7348 24 28.4804 24.1054 28.2929 24.2929C28.1054 24.4804 28 24.7348 28 25C28 25.2652 28.1054 25.5196 28.2929 25.7071C28.4804 25.8946 28.7348 26 29 26H39C39.2652 26 39.5196 25.8946 39.7071 25.7071C39.8946 25.5196 40 25.2652 40 25C40 24.7348 39.8946 24.4804 39.7071 24.2929C39.5196 24.1054 39.2652 24 39 24ZM39 28H29C28.7348 28 28.4804 28.1054 28.2929 28.2929C28.1054 28.4804 28 28.7348 28 29C28 29.2652 28.1054 29.5196 28.2929 29.7071C28.4804 29.8946 28.7348 30 29 30H39C39.2652 30 39.5196 29.8946 39.7071 29.7071C39.8946 29.5196 40 29.2652 40 29C40 28.7348 39.8946 28.4804 39.7071 28.2929C39.5196 28.1054 39.2652 28 39 28ZM39 32H29C28.7348 32 28.4804 32.1054 28.2929 32.2929C28.1054 32.4804 28 32.7348 28 33C28 33.2652 28.1054 33.5196 28.2929 33.7071C28.4804 33.8946 28.7348 34 29 34H39C39.2652 34 39.5196 33.8946 39.7071 33.7071C39.8946 33.5196 40 33.2652 40 33C40 32.7348 39.8946 32.4804 39.7071 32.2929C39.5196 32.1054 39.2652 32 39 32ZM40 37C40 36.7348 39.8946 36.4804 39.7071 36.2929C39.5196 36.1054 39.2652 36 39 36H29C28.7348 36 28.4804 36.1054 28.2929 36.2929C28.1054 36.4804 28 36.7348 28 37C28 37.2652 28.1054 37.5196 28.2929 37.7071C28.4804 37.8946 28.7348 38 29 38H39C39.2652 38 39.5196 37.8946 39.7071 37.7071C39.8946 37.5196 40 37.2652 40 37Z" fill="black"/>
<path d="M40 17C40 16.7348 39.8946 16.4804 39.7071 16.2929C39.5196 16.1054 39.2652 16 39 16H27C26.7348 16 26.4804 16.1054 26.2929 16.2929C26.1054 16.4804 26 16.7348 26 17C26 17.2652 26.1054 17.5196 26.2929 17.7071C26.4804 17.8946 26.7348 18 27 18H39C39.2652 18 39.5196 17.8946 39.7071 17.7071C39.8946 17.5196 40 17.2652 40 17Z" fill="black"/>
<path d="M45 48H41C40.7348 48 40.4804 48.1054 40.2929 48.2929C40.1054 48.4804 40 48.7348 40 49C40 49.2652 40.1054 49.5196 40.2929 49.7071C40.4804 49.8946 40.7348 50 41 50H45C45.2652 50 45.5196 49.8946 45.7071 49.7071C45.8946 49.5196 46 49.2652 46 49C46 48.7348 45.8946 48.4804 45.7071 48.2929C45.5196 48.1054 45.2652 48 45 48Z" fill="black"/>
<path d="M58 24H50V7C50 6.20435 49.6839 5.44129 49.1213 4.87868C48.5587 4.31607 47.7957 4 47 4H7C6.20435 4 5.44129 4.31607 4.87868 4.87868C4.31607 5.44129 4 6.20435 4 7V53C4 54.8565 4.7375 56.637 6.05025 57.9497C7.36301 59.2625 9.14348 60 11 60H55C56.8565 60 58.637 59.2625 59.9497 57.9497C61.2625 56.637 62 54.8565 62 53V28C62 26.9391 61.5786 25.9217 60.8284 25.1716C60.0783 24.4214 59.0609 24 58 24ZM11 58C9.67392 58 8.40215 57.4732 7.46447 56.5355C6.52678 55.5979 6 54.3261 6 53V50H37C37.2652 50 37.5196 49.8946 37.7071 49.7071C37.8946 49.5196 38 49.2652 38 49C38 48.7348 37.8946 48.4804 37.7071 48.2929C37.5196 48.1054 37.2652 48 37 48H6V7C6 6.73478 6.10536 6.48043 6.29289 6.29289C6.48043 6.10536 6.73478 6 7 6H47C47.2652 6 47.5196 6.10536 47.7071 6.29289C47.8946 6.48043 48 6.73478 48 7V53C47.9868 53.9242 48.1567 54.8419 48.4999 55.7C48.8432 56.5582 49.353 57.3399 50 58H11ZM60 53C60 54.3261 59.4732 55.5979 58.5355 56.5355C57.5979 57.4732 56.3261 58 55 58C54.3374 58.0223 53.6772 57.9082 53.0605 57.6648C52.4438 57.4214 51.8837 57.0539 51.4149 56.5851C50.9461 56.1163 50.5786 55.5562 50.3352 54.9395C50.0918 54.3228 49.9777 53.6626 50 53V26H54.56C54.2005 26.6057 54.0073 27.2957 54 28V45C54 45.2652 54.1054 45.5196 54.2929 45.7071C54.4804 45.8946 54.7348 46 55 46C55.2652 46 55.5196 45.8946 55.7071 45.7071C55.8946 45.5196 56 45.2652 56 45V28C56 27.4696 56.2107 26.9609 56.5858 26.5858C56.9609 26.2107 57.4696 26 58 26C58.5304 26 59.0391 26.2107 59.4142 26.5858C59.7893 26.9609 60 27.4696 60 28V53Z" fill="black"/>
</svg>
