<svg width="64" height="64" viewBox="0 0 64 64" fill="none" xmlns="http://www.w3.org/2000/svg">
<path d="M8 41L25 33L32 35L39 33L56 41C59.067 42.2 61 46.167 61 49.46V57C61 58.105 60.105 59 59 59H5C3.895 59 3 58.105 3 57V49.46C3 46.167 4.933 42.2 8 41Z" fill="#C2CDE7"/>
<path d="M32 45C37.16 45 43 42 46 36L39 33L32 35L26 33L18 36C20.926 40.076 26.84 45 32 45Z" fill="#C2CDE7"/>
<path d="M59 60.0002H5C3.346 60.0002 2 58.6542 2 57.0002V49.3282C2 45.0992 4.469 41.1972 8.291 39.3872L24.855 31.9692L32 32.9902L39.145 31.9692L55.689 39.3782C59.531 41.1972 62 45.1002 62 49.3282V57.0002C62 58.6542 60.654 60.0002 59 60.0002ZM9.138 41.1992C6.016 42.6822 4 45.8722 4 49.3282V57.0002C4 57.5512 4.449 58.0002 5 58.0002H59C59.551 58.0002 60 57.5512 60 57.0002V49.3282C60 45.8682 57.979 42.6762 54.853 41.1952L38.855 34.0312L32 35.0102L25.145 34.0312L9.138 41.1992Z" fill="black"/>
<path d="M44.921 19.612C44.697 17.268 44.061 14.776 44.364 13.664C44.553 12.97 44 13 47 14C43 4 37.839 3 32 3C28.609 3 26.088 3.584 24 5C19.438 5 18.844 12.205 18.775 19.134C17.69 18.721 17 19.543 17 21C17 22.578 18.011 25.931 20 27C21.529 34.461 27 39 32 39C37 39 42 34 44 27C46.22 26.056 47 22.643 47 21C47 19.273 46.306 18.532 44.921 19.612Z" fill="#FAEFDE"/>
<path d="M26 11C29 13 35.353 14 38 14C41.888 14 42 14 44 14C44 14 46 13 47 14C44 5 37.058 3 34 3H30C28.388 3 26 4 25 5C22.195 4.104 19 7.492 19 12V18C22 17 25 12 26 11Z" fill="#CDA1A7"/>
<path d="M27.9197 12.8798C30.7837 14.2698 33.9257 14.9948 37.1097 14.9998H39.6597C40.2117 14.9998 40.6597 14.5518 40.6597 13.9998C40.6597 13.4478 40.2117 12.9998 39.6597 12.9998H37.1097C34.2267 12.9958 31.3827 12.3388 28.7897 11.0798L27.2297 10.3198C26.3247 9.8778 25.2317 10.1778 24.6797 11.0198L23.0797 13.4498C22.7837 13.9158 22.9217 14.5338 23.3877 14.8298C23.8427 15.1188 24.4457 14.9948 24.7497 14.5498L26.3497 12.1198L27.9197 12.8798Z" fill="black"/>
<path d="M46.2808 18.12C46.1398 18.084 45.9958 18.064 45.8508 18.06C45.6788 16.881 45.3708 15.727 44.9308 14.62V14.51C45.4048 14.567 45.8688 14.688 46.3108 14.87C46.8208 15.082 47.4058 14.84 47.6178 14.33C47.6968 14.14 47.7148 13.93 47.6708 13.73C46.0008 6.41 40.5608 2 33.0008 2H32.0008C29.4308 2.011 26.9088 2.701 24.6908 4C21.0008 4.14 18.4208 6.76 18.0008 10.9C17.8158 12.765 17.8598 14.646 18.1308 16.5C18.1848 16.831 18.2148 17.165 18.2208 17.5C18.2208 17.687 18.1908 17.873 18.1308 18.06C17.9828 18.064 17.8348 18.084 17.6908 18.12C16.0408 18.56 15.3508 20.97 16.0908 23.73C16.6308 25.73 17.7508 27.23 18.9708 27.73C19.5938 29.588 20.4508 31.358 21.5208 33L21.5178 33.002C21.8218 33.618 22.7008 34.68 22.7008 34.68C25.1608 37.79 28.4008 40 32.0008 40C35.5848 40 38.8118 37.808 41.2678 34.729C41.6358 34.271 42.4808 33 42.4808 33C43.5398 31.357 44.3868 29.586 45.0008 27.73C46.2308 27.27 47.3508 25.73 47.8808 23.73C48.6208 20.98 47.8808 18.57 46.2808 18.12ZM45.9508 23.25C45.4508 25.1 44.5108 25.87 44.2208 25.87C43.7618 25.852 43.3488 26.149 43.2208 26.59C41.5908 32.26 37.1808 38 32.0008 38C26.8208 38 22.4108 32.26 20.7208 26.6C20.5978 26.177 20.2118 25.884 19.7708 25.88H19.7508C19.4608 25.88 18.5108 25.1 18.0208 23.26C17.5308 21.42 17.9708 20.17 18.2008 20.11C18.2998 20.127 18.3918 20.168 18.4708 20.23C18.9388 20.523 19.5558 20.382 19.8488 19.914C19.9398 19.768 19.9918 19.602 20.0008 19.43C20.0248 18.914 20.0818 18.399 20.1708 17.89C20.2228 17.342 20.1958 16.79 20.0908 16.25C19.8518 14.543 19.8218 12.814 20.0008 11.1C20.3108 7.91 22.1908 6 25.0008 6C25.2168 6 25.4278 5.93 25.6008 5.8C27.5238 4.613 29.7408 3.99 32.0008 4H33.0008C39.0708 4 43.4508 7.1 45.2508 12.58C44.5778 12.449 43.8808 12.625 43.3508 13.06C42.7748 13.687 42.6578 14.61 43.0608 15.36C43.5938 16.654 43.8988 18.032 43.9608 19.43C43.9888 19.982 44.4588 20.406 45.0098 20.378C45.1838 20.369 45.3538 20.315 45.4998 20.22C45.5798 20.16 45.6718 20.119 45.7698 20.1C46.0108 20.18 46.4508 21.4 45.9508 23.25Z" fill="black"/>
</svg>
