<svg width="64" height="64" viewBox="0 0 64 64" fill="none" xmlns="http://www.w3.org/2000/svg">
<path d="M39.13 1.25L17 14.63L25 29L3.25 50.83L4.5 59.42L13.31 60.69L14.62 58.82L15.31 54.51L19.43 53.76L21 48.88L26.31 47.63L35 39L48.72 47L63 25L39.13 1.25ZM41.18 23.61L35.92 14L40.67 10.83L52.92 23.08L49.83 28L41.18 23.61Z" fill="#FAEFDE"/>
<path d="M51.51 12.5801L47.46 16.6301L52.92 23.0801L49.83 28.0001L41.18 23.6101L41.58 22.5101L5.39 58.7001L4.5 59.4201L13.31 60.6901L14.63 58.8101L15.31 54.5001L19.43 53.7501L21 48.8801L26.31 47.6301L35 39.0001L48.72 47.0001L63 25.0001L51.51 12.5801Z" fill="#FAEFDE"/>
<path d="M25.6398 34.1898L4.85984 54.9998L3.08984 51.0898L25.0898 29.0898L25.9998 30.3498C26.4008 30.9301 26.5845 31.6331 26.5187 32.3354C26.4529 33.0376 26.1417 33.6942 25.6398 34.1898Z" fill="#FAEFDE"/>
<path d="M62.8607 22.8198L41.0607 0.999812C40.5772 0.525536 39.9473 0.228857 39.2737 0.158046C38.6001 0.0872342 37.9223 0.246459 37.3507 0.609812L17.7407 12.8598C17.0704 13.2737 16.5898 13.9347 16.4027 14.6999C16.2156 15.4652 16.337 16.2733 16.7407 16.9498L23.4107 28.0698C23.5251 28.2608 23.5725 28.4846 23.5453 28.7056C23.5181 28.9266 23.418 29.1322 23.2607 29.2898L2.83072 49.7398C2.60582 49.9645 2.4377 50.2395 2.34031 50.5421C2.24292 50.8447 2.21907 51.1662 2.27072 51.4798L3.48072 58.7498C3.54787 59.1615 3.74207 59.5419 4.03614 59.8378C4.33021 60.1337 4.70943 60.3302 5.12072 60.3998L12.3907 61.6098H12.7207C12.9846 61.61 13.246 61.558 13.4897 61.4567C13.7334 61.3555 13.9547 61.207 14.1407 61.0198L15.0007 60.1998C15.308 59.8948 15.5081 59.4982 15.5707 59.0698L16.1207 55.1998L19.5207 54.7398C19.9578 54.679 20.3625 54.4754 20.6717 54.1607C20.981 53.846 21.1776 53.4379 21.2307 52.9998L21.6907 49.5898L25.6907 48.9598C26.1073 48.8938 26.4923 48.6978 26.7907 48.3998L34.6007 40.5898C34.7584 40.4326 34.964 40.3324 35.185 40.3052C35.4059 40.2781 35.6297 40.3254 35.8207 40.4398L46.9407 47.1098C47.6172 47.5135 48.4254 47.6349 49.1906 47.4478C49.9559 47.2607 50.6168 46.7801 51.0307 46.1098L63.2807 26.5298C63.6403 25.955 63.7945 25.2752 63.7182 24.6015C63.6419 23.9278 63.3397 23.2997 62.8607 22.8198ZM61.5907 25.4698L49.3307 45.0798C49.1923 45.3018 48.9723 45.4607 48.7181 45.5224C48.4638 45.584 48.1955 45.5436 47.9707 45.4098L36.8407 38.7398C36.2666 38.3941 35.5933 38.2506 34.9282 38.3322C34.263 38.4138 33.6443 38.7157 33.1707 39.1898L25.3607 46.9998L21.3607 47.6298C20.9354 47.6971 20.5431 47.8998 20.2422 48.2079C19.9413 48.516 19.7479 48.913 19.6907 49.3398L19.2307 52.7498L15.8307 53.2098C15.3996 53.2686 14.9993 53.4663 14.6907 53.7731C14.3821 54.0799 14.182 54.479 14.1207 54.9098L13.5707 58.7798L12.7107 59.6398L5.45072 58.4298L5.00072 55.9298C5.09219 55.8861 5.17649 55.8288 5.25072 55.7598L15.9007 45.1598C16.0645 44.9685 16.1502 44.7224 16.1404 44.4708C16.1307 44.2191 16.0264 43.9803 15.8483 43.8022C15.6702 43.6242 15.4315 43.5198 15.1798 43.5101C14.9281 43.5004 14.682 43.586 14.4907 43.7498L4.65072 53.5798L4.25072 51.1598L24.6907 30.7098C25.1744 30.2335 25.4822 29.6073 25.564 28.9334C25.6457 28.2596 25.4965 27.5779 25.1407 26.9998L18.4707 15.9198C18.3369 15.695 18.2965 15.4267 18.3582 15.1725C18.4199 14.9182 18.5787 14.6983 18.8007 14.5598L38.4107 2.29981C38.6027 2.17911 38.8299 2.12723 39.0552 2.15266C39.2805 2.1781 39.4905 2.27935 39.6507 2.43981L61.4407 24.2298C61.6012 24.39 61.7024 24.6 61.7279 24.8253C61.7533 25.0506 61.7014 25.2779 61.5807 25.4698H61.5907Z" fill="black"/>
<path d="M41.9205 10.3702C41.6007 10.0517 41.1827 9.85067 40.7343 9.79984C40.2858 9.74901 39.8334 9.85133 39.4505 10.0902L36.0005 12.2502C35.55 12.529 35.2286 12.9752 35.1067 13.4907C34.9848 14.0063 35.0725 14.5492 35.3505 15.0002L40.2805 22.6702C40.5127 23.0311 40.8196 23.338 41.1805 23.5702L48.8505 28.5002C49.1724 28.7081 49.5473 28.8192 49.9305 28.8202C50.0767 28.8364 50.2243 28.8364 50.3705 28.8202C50.629 28.7626 50.8734 28.6543 51.0897 28.5016C51.306 28.3488 51.4898 28.1546 51.6305 27.9302L53.8005 24.4602C54.0368 24.0783 54.1377 23.6279 54.0869 23.1816C54.0361 22.7354 53.8366 22.3192 53.5205 22.0002L41.9205 10.3702ZM49.9205 26.8602L42.2505 21.9302C42.1302 21.8528 42.0279 21.7505 41.9505 21.6302L37.0005 14.0002L40.4705 11.8302L52.0705 23.4302L49.9205 26.8602ZM20.1405 38.0902L17.3105 40.9202C17.2058 41.0098 17.1208 41.1201 17.0608 41.2442C17.0007 41.3683 16.967 41.5034 16.9617 41.6411C16.9564 41.7788 16.9796 41.9162 17.0298 42.0445C17.0801 42.1728 17.1564 42.2894 17.2538 42.3868C17.3513 42.4843 17.4678 42.5605 17.5962 42.6108C17.7245 42.6611 17.8618 42.6843 17.9995 42.679C18.1373 42.6737 18.2724 42.6399 18.3965 42.5799C18.5205 42.5199 18.6308 42.4349 18.7205 42.3302L21.5505 39.5002C21.7143 39.3089 21.7999 39.0628 21.7902 38.8111C21.7805 38.5595 21.6761 38.3207 21.498 38.1426C21.32 37.9645 21.0812 37.8602 20.8295 37.8505C20.5779 37.8408 20.3318 37.9264 20.1405 38.0902Z" fill="black"/>
</svg>
