<svg width="65" height="64" viewBox="0 0 65 64" fill="none" xmlns="http://www.w3.org/2000/svg">
<path d="M57.1719 13V51C57.1719 54.31 54.4819 57 51.1719 57H13.1719C9.86188 57 7.17188 54.31 7.17188 51V13C7.17188 9.69 9.86188 7 13.1719 7H51.1719C54.4819 7 57.1719 9.69 57.1719 13Z" fill="#ACB7D0"/>
<path d="M16.2888 39.731C16.2088 40.0146 16.1688 40.3201 16.1688 40.6364C16.1688 42.4364 17.5188 43.9091 19.1688 43.9091C20.8188 43.9091 22.1688 42.4364 22.1688 40.6364C22.1688 40.2437 22.0988 39.851 21.9788 39.5019L29.6388 32.5419C30.0888 32.8364 30.6188 33.0001 31.1688 33.0001C31.7788 33.0001 32.3588 32.7928 32.8388 32.4546L36.3088 35.3019C36.2188 35.6073 36.1688 35.9346 36.1688 36.2728C36.1688 38.0728 37.5188 39.5455 39.1688 39.5455C40.8188 39.5455 42.1688 38.0728 42.1688 36.2728C42.1688 35.771 42.0688 35.3019 41.8688 34.8764L51.1688 24.731V31.3473C51.1688 31.9495 51.6158 32.4382 52.1688 32.4382C52.7218 32.4382 53.1688 31.9495 53.1688 31.3473V22.1052C53.1718 21.8193 53.0768 21.5324 52.8788 21.3164C52.6808 21.1004 52.4178 20.9968 52.1558 21.0001H43.6838C43.1308 21.0001 42.6838 21.4888 42.6838 22.091C42.6838 22.6932 43.1308 23.1819 43.6838 23.1819H49.7488L40.4488 33.3273C40.0588 33.1092 39.6288 33.0001 39.1688 33.0001C38.5588 33.0001 37.9788 33.2073 37.4988 33.5455L34.0288 30.6982C34.1188 30.3928 34.1688 30.0655 34.1688 29.7273C34.1688 27.9273 32.8188 26.4546 31.1688 26.4546C29.5188 26.4546 28.1688 27.9273 28.1688 29.7273C28.1688 30.1201 28.2388 30.5019 28.3588 30.851L20.6988 37.8219C20.2488 37.5273 19.7188 37.3637 19.1688 37.3637C18.5388 37.3637 17.9388 37.5819 17.4488 37.9528L12.7488 34.2982C12.2988 33.9492 11.6788 34.0582 11.3588 34.5492C11.0388 35.0401 11.1388 35.7164 11.5888 36.0655L16.2888 39.731ZM40.1488 36.491C40.1188 36.6546 40.0488 36.8073 39.9588 36.9382C39.9088 37.0037 39.8588 37.0691 39.7988 37.1128C39.7488 37.1564 39.6988 37.2001 39.6488 37.2219C39.5688 37.2764 39.4788 37.3091 39.3888 37.331C39.3188 37.3528 39.2488 37.3637 39.1688 37.3637C39.0988 37.3637 39.0288 37.3528 38.9688 37.3419C38.7688 37.2982 38.5988 37.1891 38.4588 37.0473C38.2788 36.8401 38.1688 36.5782 38.1688 36.2728C38.1688 35.6728 38.6188 35.1819 39.1688 35.1819C39.3788 35.1819 39.5688 35.2473 39.7288 35.3673C39.7488 35.3782 39.7588 35.4001 39.7788 35.411C39.8388 35.4655 39.8988 35.5201 39.9388 35.5855C39.9788 35.6401 40.0188 35.6946 40.0388 35.7491C40.0888 35.8364 40.1188 35.9346 40.1388 36.0328C40.1588 36.1091 40.1688 36.1855 40.1688 36.2728C40.1688 36.3491 40.1588 36.4255 40.1488 36.491ZM30.9488 28.6692C31.0188 28.6473 31.0888 28.6364 31.1688 28.6364C31.3188 28.6364 31.4588 28.6692 31.5888 28.7346C31.6288 28.7564 31.6688 28.7782 31.7088 28.811C31.7288 28.8219 31.7488 28.8437 31.7688 28.8546C31.7788 28.8655 31.7988 28.8764 31.8088 28.8873C31.8188 28.8982 31.8188 28.8982 31.8288 28.9092C31.8588 28.931 31.8888 28.9746 31.9188 29.0073C31.9488 29.051 31.9788 29.0946 32.0088 29.1382C32.0388 29.1819 32.0588 29.2364 32.0788 29.2801C32.1088 29.3564 32.1288 29.4328 32.1488 29.5092C32.1588 29.5746 32.1688 29.6401 32.1688 29.7164V29.7273C32.1688 29.9782 32.0888 30.2073 31.9588 30.3928C31.9188 30.4473 31.8788 30.5019 31.8288 30.5455C31.7988 30.5782 31.7588 30.6001 31.7288 30.6328C31.5688 30.7528 31.3788 30.8182 31.1688 30.8182C30.9588 30.8182 30.7688 30.7528 30.6088 30.6328C30.5588 30.5892 30.5188 30.5564 30.4688 30.5019C30.4488 30.4801 30.4188 30.4473 30.3988 30.4146C30.3588 30.3601 30.3188 30.3055 30.2988 30.251C30.2688 30.2073 30.2488 30.1637 30.2388 30.1092C30.2188 30.0655 30.1988 30.0219 30.1988 29.9673C30.1788 29.891 30.1688 29.8146 30.1688 29.7273C30.1688 29.5419 30.2088 29.3564 30.2988 29.2037C30.3188 29.1492 30.3488 29.1055 30.3788 29.0619C30.3988 29.0292 30.4288 28.9964 30.4588 28.9637C30.4788 28.9419 30.4988 28.9201 30.5288 28.8873C30.6488 28.7782 30.7888 28.7019 30.9488 28.6692ZM19.8288 41.4546C19.8088 41.4655 19.7988 41.4873 19.7788 41.4982C19.7388 41.531 19.6988 41.5637 19.6588 41.5855C19.6388 41.5964 19.6288 41.6073 19.6088 41.6073C19.5388 41.651 19.4688 41.6837 19.3988 41.6946C19.3288 41.7164 19.2488 41.7273 19.1688 41.7273C19.0288 41.7273 18.8988 41.6946 18.7788 41.6401C18.7588 41.6291 18.7488 41.6291 18.7288 41.6182C18.6788 41.5855 18.6288 41.5637 18.5888 41.5201C18.5688 41.5091 18.5588 41.4982 18.5388 41.4873C18.5088 41.4546 18.4888 41.4328 18.4588 41.411C18.4088 41.3564 18.3688 41.291 18.3288 41.2255C18.2988 41.1819 18.2788 41.1273 18.2588 41.0837C18.2288 41.0073 18.2088 40.931 18.1888 40.8546C18.1788 40.7891 18.1688 40.7237 18.1688 40.6473V40.6364C18.1688 40.3855 18.2488 40.1564 18.3788 39.971C18.4188 39.9164 18.4588 39.8619 18.5088 39.8182C18.5388 39.7855 18.5788 39.7637 18.6088 39.731C18.7688 39.611 18.9588 39.5455 19.1688 39.5455C19.3588 39.5455 19.5488 39.611 19.6988 39.7091C19.7188 39.7201 19.7288 39.731 19.7488 39.7528C19.8088 39.7964 19.8688 39.8619 19.9188 39.9164C19.9288 39.9273 19.9288 39.9273 19.9388 39.9382C19.9788 40.0037 20.0188 40.0691 20.0488 40.1346C20.0588 40.1455 20.0588 40.1455 20.0588 40.1564C20.0988 40.2328 20.1188 40.3091 20.1388 40.3855C20.1588 40.4619 20.1688 40.5491 20.1688 40.6364C20.1688 40.7564 20.1488 40.8655 20.1088 40.9746C20.1088 41.0182 20.0888 41.0728 20.0588 41.1164C20.0388 41.171 20.0088 41.2255 19.9788 41.2691C19.9488 41.3128 19.9188 41.3564 19.8788 41.411C19.8588 41.4219 19.8488 41.4437 19.8288 41.4546Z" fill="#FAEFDE"/>
<path d="M53.1719 7H11.1719L7.17188 11C7.17188 12.657 8.51488 14 10.1719 14H54.1719C55.8289 14 57.1719 12.657 57.1719 11L53.1719 7Z" fill="#ACB7D0"/>
<path d="M51.1719 58H13.1719C9.31288 58 6.17188 54.859 6.17188 51V13C6.17188 9.141 9.31288 6 13.1719 6H51.1719C55.0309 6 58.1719 9.141 58.1719 13V51C58.1719 54.859 55.0309 58 51.1719 58ZM13.1719 8C10.4149 8 8.17188 10.243 8.17188 13V51C8.17188 53.757 10.4149 56 13.1719 56H51.1719C53.9289 56 56.1719 53.757 56.1719 51V13C56.1719 10.243 53.9289 8 51.1719 8H13.1719Z" fill="black"/>
<path d="M51.6422 44.47C51.4622 44.69 51.2622 44.91 51.0622 45.13C50.3522 45.88 49.5122 46.59 48.6622 46.94C45.8822 48.07 43.0922 48.07 39.6722 46.1L39.6522 46.05C30.4022 41.6 22.5622 33.76 18.1122 24.51L18.1022 24.5C16.1322 21.08 16.1322 18.29 17.2622 15.51C17.6122 14.66 18.3122 13.83 19.0622 13.11C19.2822 12.91 19.5122 12.71 19.7322 12.53C20.7622 11.67 22.3222 11.88 23.0722 12.99L27.6122 19.72C28.1522 20.53 28.1022 21.59 27.4922 22.35L26.5122 23.56L25.0222 25.4C28.4022 30.92 33.2622 35.79 38.7822 39.17L40.6122 37.69L41.8222 36.71C42.5822 36.09 43.6422 36.05 44.4522 36.59L51.1822 41.13C52.2922 41.88 52.5022 43.44 51.6422 44.47Z" fill="#C2CDE7"/>
<path d="M51.6413 44.47C51.4613 44.69 51.2613 44.91 51.0613 45.13C50.3313 45.11 49.5913 44.89 48.9413 44.45L42.2113 39.91C41.4013 39.36 40.8613 38.56 40.6113 37.69L41.8213 36.71C42.5813 36.09 43.6413 36.05 44.4513 36.59L51.1813 41.13C52.2913 41.88 52.5013 43.44 51.6413 44.47Z" fill="#C2CDE7"/>
<path d="M27.4925 22.35L26.5125 23.56C25.6325 23.32 24.8425 22.77 24.2925 21.96L19.7525 15.23C19.3125 14.58 19.0825 13.84 19.0625 13.11C19.2825 12.91 19.5125 12.71 19.7325 12.53C20.7625 11.67 22.3225 11.88 23.0725 12.99L27.6125 19.72C28.1525 20.53 28.1025 21.59 27.4925 22.35Z" fill="#C2CDE7"/>
<path d="M45.0144 48.694C43.0994 48.694 41.1834 48.121 39.1704 46.966C39.1094 46.932 39.0534 46.891 39.0024 46.846C29.6924 42.308 21.7894 34.388 17.2754 25.068C17.2594 25.047 17.2464 25.025 17.2334 25.003C15.2754 21.59 14.9904 18.455 16.3344 15.137C16.7704 14.06 17.6964 12.925 19.0884 11.764C19.8024 11.168 20.7374 10.9 21.6564 11.034C22.5674 11.163 23.3844 11.673 23.8964 12.431L28.4374 19.162C29.2304 20.339 29.1644 21.871 28.2704 22.975L26.2444 25.479C29.3924 30.411 33.7804 34.795 38.7114 37.94L41.1964 35.928C42.2994 35.035 43.8314 34.967 45.0094 35.761L51.7404 40.303C52.4994 40.816 53.0094 41.631 53.1374 42.542C53.2684 43.462 53.0014 44.397 52.4074 45.11C51.2484 46.501 50.1134 47.427 49.0354 47.865C47.6754 48.417 46.3454 48.694 45.0144 48.694ZM40.3544 45.339C43.1864 46.913 45.5684 47.112 48.2864 46.013C49.0454 45.705 49.9404 44.95 50.8734 43.83C51.1104 43.547 51.2124 43.189 51.1604 42.824C51.1094 42.468 50.9194 42.161 50.6234 41.962L43.8924 37.42C43.4504 37.121 42.8724 37.148 42.4554 37.483L39.4164 39.943C39.0874 40.21 38.6244 40.239 38.2664 40.018C32.6284 36.57 27.6204 31.565 24.1664 25.927C23.9444 25.566 23.9754 25.105 24.2414 24.776L26.7174 21.717C27.0544 21.301 27.0794 20.723 26.7804 20.28L22.2394 13.549C22.0404 13.254 21.7334 13.063 21.3764 13.012C21.0074 12.96 20.6534 13.063 20.3704 13.299C19.2504 14.234 18.4954 15.128 18.1884 15.886C17.0774 18.631 17.2924 21.034 18.9104 23.904C18.9524 23.958 18.9894 24.016 19.0184 24.078C23.3634 33.121 31.0404 40.801 40.0834 45.147C40.1844 45.196 40.2764 45.262 40.3544 45.339Z" fill="black"/>
</svg>
