<svg width="64" height="64" viewBox="0 0 64 64" fill="none" xmlns="http://www.w3.org/2000/svg">
<g clip-path="url(#clip0_247_1087)">
<path d="M40.1719 44.0005L44.0892 40.0831L46.9177 42.9115L43.0003 46.8289L40.1719 44.0005Z" fill="#DADCEC"/>
<path d="M45.2628 44.9081L44.9163 45.2546C43.3542 46.8167 43.3542 49.3493 44.9163 50.9114L55.1764 61.1716C56.7385 62.7336 59.2712 62.7337 60.8333 61.1716L61.1798 60.8251C62.7419 59.263 62.7419 56.7303 61.1798 55.1682L50.9197 44.9081C49.3576 43.346 46.8249 43.346 45.2628 44.9081Z" fill="#CDA1A7"/>
<path d="M46.5831 46.5864C45.7552 45.7585 44.4129 45.7585 43.585 46.5864C42.7571 47.4143 42.7571 48.7566 43.585 49.5845L56.5038 62.5034C57.3318 63.3313 58.6741 63.3313 59.502 62.5034C60.3299 61.6754 60.3299 60.3331 59.502 59.5052L46.5831 46.5864Z" fill="#CDA1A7"/>
<path d="M25 1C21.8483 1 18.7274 1.62078 15.8156 2.82689C12.9038 4.033 10.258 5.80083 8.02944 8.02944C5.80083 10.258 4.033 12.9038 2.82689 15.8156C1.62078 18.7274 1 21.8483 1 25C1 28.1517 1.62078 31.2726 2.82689 34.1844C4.033 37.0962 5.80083 39.742 8.02944 41.9706C10.258 44.1992 12.9038 45.967 15.8156 47.1731C18.7274 48.3792 21.8483 49 25 49C28.1517 49 31.2726 48.3792 34.1844 47.1731C37.0962 45.967 39.742 44.1992 41.9706 41.9706C44.1992 39.742 45.967 37.0962 47.1731 34.1844C48.3792 31.2726 49 28.1517 49 25C49 21.8483 48.3792 18.7274 47.1731 15.8156C45.967 12.9038 44.1992 10.258 41.9706 8.02944C39.742 5.80083 37.0962 4.033 34.1844 2.82689C31.2726 1.62078 28.1517 1 25 1Z" fill="#FAEFDE"/>
<path d="M11.1391 38.8599L38.8591 11.1399C39.2725 10.7263 39.7716 10.4083 40.3213 10.2085C40.8709 10.0087 41.4576 9.93182 42.0402 9.9833C42.6227 10.0348 43.1869 10.2134 43.6929 10.5065C44.199 10.7996 44.6346 11.2001 44.9691 11.6799C48.0728 16.296 49.4767 21.847 48.9407 27.3837C48.4048 32.9204 45.9622 38.0989 42.0306 42.034C38.0991 45.9692 32.9227 48.4164 27.3865 48.9574C21.8503 49.4983 16.298 48.0994 11.6791 44.9999C11.1943 44.6657 10.7893 44.2287 10.493 43.72C10.1966 43.2113 10.0162 42.6434 9.9646 42.0569C9.91302 41.4704 9.99154 40.8798 10.1946 40.3271C10.3976 39.7745 10.7201 39.2735 11.1391 38.8599Z" fill="#FAEFDE"/>
<path d="M25 7C20.2261 7 15.6477 8.89642 12.2721 12.2721C8.89642 15.6477 7 20.2261 7 25C7 29.7739 8.89642 34.3523 12.2721 37.7279C15.6477 41.1036 20.2261 43 25 43C29.7739 43 34.3523 41.1036 37.7279 37.7279C41.1036 34.3523 43 29.7739 43 25C43 20.2261 41.1036 15.6477 37.7279 12.2721C34.3523 8.89642 29.7739 7 25 7Z" fill="#C2CDE7"/>
<path d="M25 18C23.1435 18 21.363 18.7375 20.0503 20.0503C18.7375 21.363 18 23.1435 18 25C18 26.8565 18.7375 28.637 20.0503 29.9497C21.363 31.2625 23.1435 32 25 32C26.8565 32 28.637 31.2625 29.9497 29.9497C31.2625 28.637 32 26.8565 32 25C32 23.1435 31.2625 21.363 29.9497 20.0503C28.637 18.7375 26.8565 18 25 18Z" fill="#ACB7D0"/>
<path d="M21 17C19.9391 17 18.9217 17.4214 18.1716 18.1716C17.4214 18.9217 17 19.9391 17 21C17 22.0609 17.4214 23.0783 18.1716 23.8284C18.9217 24.5786 19.9391 25 21 25C22.0609 25 23.0783 24.5786 23.8284 23.8284C24.5786 23.0783 25 22.0609 25 21C25 19.9391 24.5786 18.9217 23.8284 18.1716C23.0783 17.4214 22.0609 17 21 17ZM29.5 28C29.1022 28 28.7206 28.158 28.4393 28.4393C28.158 28.7206 28 29.1022 28 29.5C28 29.8978 28.158 30.2794 28.4393 30.5607C28.7206 30.842 29.1022 31 29.5 31C29.8978 31 30.2794 30.842 30.5607 30.5607C30.842 30.2794 31 29.8978 31 29.5C31 29.1022 30.842 28.7206 30.5607 28.4393C30.2794 28.158 29.8978 28 29.5 28Z" fill="#F3F3F3"/>
<path d="M38.4409 11.5699C35.7837 8.91269 32.3982 7.1031 28.7126 6.36998C25.027 5.63685 21.2067 6.01311 17.7349 7.45117C14.2631 8.88924 11.2957 11.3245 9.20794 14.449C7.12019 17.5736 6.00586 21.247 6.00586 25.0049C6.00586 28.7627 7.12019 32.4362 9.20794 35.5607C11.2957 38.6853 14.2631 41.1206 17.7349 42.5586C21.2067 43.9967 25.027 44.3729 28.7126 43.6398C32.3982 42.9067 35.7837 41.0971 38.4409 38.4399C40.2196 36.6837 41.6319 34.5918 42.5958 32.2855C43.5597 29.9792 44.0561 27.5045 44.0561 25.0049C44.0561 22.5053 43.5597 20.0306 42.5958 17.7243C41.6319 15.418 40.2196 13.3261 38.4409 11.5699ZM37.0009 36.9999C34.6258 39.3833 31.5968 41.0082 28.2975 41.6689C24.9982 42.3296 21.5771 41.9964 18.4673 40.7115C15.3575 39.4265 12.699 37.2476 10.8284 34.4507C8.95784 31.6538 7.95932 28.3647 7.95932 24.9999C7.95932 21.6351 8.95784 18.346 10.8284 15.5491C12.699 12.7522 15.3575 10.5733 18.4673 9.28832C21.5771 8.00336 24.9982 7.67014 28.2975 8.33086C31.5968 8.99158 34.6258 10.6165 37.0009 12.9999C38.5864 14.5703 39.845 16.4394 40.7039 18.4991C41.5629 20.5588 42.0051 22.7683 42.0051 24.9999C42.0051 27.2315 41.5629 29.441 40.7039 31.5007C39.845 33.5604 38.5864 35.4295 37.0009 36.9999Z" fill="black"/>
<path d="M31.1993 14.7198C32.0288 15.2221 32.7944 15.8232 33.4793 16.5098C33.6663 16.6981 33.9204 16.8044 34.1858 16.8053C34.4511 16.8063 34.706 16.7018 34.8943 16.5148C35.0826 16.3278 35.1889 16.0737 35.1899 15.8083C35.1908 15.5429 35.0863 15.2881 34.8993 15.0998C34.0973 14.2946 33.2008 13.5895 32.2293 12.9998C32.0062 12.9078 31.7573 12.8996 31.5286 12.9768C31.2999 13.0539 31.1068 13.2112 30.985 13.4195C30.8632 13.6278 30.8208 13.8732 30.8657 14.1104C30.9106 14.3475 31.0397 14.5604 31.2293 14.7098L31.1993 14.7198ZM26.3793 11.0698C24.322 10.8629 22.2443 11.1143 20.2957 11.8059C18.3471 12.4975 16.5759 13.6122 15.1093 15.0698C15.0046 15.1594 14.9196 15.2697 14.8596 15.3938C14.7996 15.5179 14.7658 15.653 14.7605 15.7907C14.7552 15.9284 14.7784 16.0658 14.8287 16.1941C14.8789 16.3224 14.9552 16.439 15.0527 16.5364C15.1501 16.6339 15.2667 16.7101 15.395 16.7604C15.5233 16.8107 15.6606 16.8339 15.7984 16.8286C15.9361 16.8233 16.0712 16.7895 16.1953 16.7295C16.3193 16.6695 16.4297 16.5845 16.5193 16.4798C17.7746 15.2234 19.2932 14.2613 20.9654 13.663C22.6377 13.0646 24.4219 12.845 26.1893 13.0198C26.3206 13.0329 26.4533 13.02 26.5796 12.9819C26.706 12.9438 26.8236 12.8812 26.9257 12.7976C27.0278 12.714 27.1125 12.6111 27.1749 12.4948C27.2373 12.3785 27.2762 12.2511 27.2893 12.1198C27.3024 11.9885 27.2896 11.8558 27.2515 11.7295C27.2133 11.6031 27.1507 11.4855 27.0671 11.3834C26.9836 11.2812 26.8807 11.1966 26.7644 11.1342C26.6481 11.0718 26.5206 11.0329 26.3893 11.0198L26.3793 11.0698Z" fill="black"/>
<path d="M61.8806 54.4601L51.5406 44.1201C51.0675 43.6507 50.5053 43.2806 49.887 43.0316C49.2688 42.7826 48.607 42.6597 47.9406 42.6701C47.9406 42.5301 45.1706 39.7601 45.1706 39.7601C48.8903 34.6775 50.5544 28.3782 49.8304 22.1216C49.1063 15.865 46.0474 10.1123 41.2652 6.01357C36.4829 1.91486 30.3299 -0.227774 24.0362 0.0140563C17.7425 0.255886 11.772 2.86436 7.31844 7.31795C2.86485 11.7715 0.256375 17.742 0.0145446 24.0357C-0.227285 30.3294 1.91535 36.4825 6.01406 41.2647C10.1128 46.0469 15.8655 49.1058 22.1221 49.8299C28.3786 50.5539 34.678 48.8898 39.7606 45.1701C39.7606 45.1701 42.5406 47.8901 42.6706 47.9401C42.8006 47.9901 42.6706 47.9401 42.6706 48.0101C42.6694 48.6672 42.7978 49.318 43.0483 49.9254C43.2988 50.5328 43.6666 51.0849 44.1306 51.5501L54.4606 61.8801C55.3982 62.8175 56.6698 63.344 57.9956 63.344C59.3214 63.344 60.593 62.8175 61.5306 61.8801L61.8706 61.5401C62.8079 60.6025 63.3345 59.3309 63.3345 58.0051C63.3345 56.6793 62.8079 55.4077 61.8706 54.4701L61.8806 54.4601ZM2.0006 25.0001C2.0006 20.4511 3.34952 16.0043 5.8768 12.222C8.40407 8.43966 11.9962 5.49169 16.1989 3.75088C20.4016 2.01006 25.0261 1.55459 29.4877 2.44205C33.9492 3.32951 38.0474 5.52004 41.264 8.73665C44.4807 11.9533 46.6712 16.0515 47.5587 20.513C48.4461 24.9746 47.9906 29.5991 46.2498 33.8018C44.509 38.0045 41.561 41.5966 37.7787 44.1239C33.9964 46.6512 29.5496 48.0001 25.0006 48.0001C18.9006 48.0001 13.0505 45.5769 8.73714 41.2636C4.4238 36.9502 2.0006 31.1001 2.0006 25.0001ZM44.1206 44.4601C43.7447 44.8476 43.434 45.2933 43.2006 45.7801L41.3306 43.9101C42.2556 43.1107 43.1212 42.2451 43.9206 41.3201L45.8006 43.2001C45.3138 43.4335 44.868 43.7442 44.4806 44.1201L44.1206 44.4601ZM60.4606 60.1201L60.1206 60.4601C59.5581 61.0219 58.7956 61.3375 58.0006 61.3375C57.2056 61.3375 56.4431 61.0219 55.8806 60.4601L45.5406 50.1201C44.9788 49.5576 44.6632 48.7951 44.6632 48.0001C44.6632 47.2051 44.9788 46.4426 45.5406 45.8801L45.8806 45.5401C46.4431 44.9783 47.2056 44.6627 48.0006 44.6627C48.7956 44.6627 49.5581 44.9783 50.1206 45.5401L60.4606 55.8801C61.0224 56.4426 61.338 57.2051 61.338 58.0001C61.338 58.7951 61.0224 59.5576 60.4606 60.1201Z" fill="black"/>
</g>
<defs>
<clipPath id="clip0_247_1087">
<rect width="64" height="64" fill="white"/>
</clipPath>
</defs>
</svg>
