<svg width="261" height="55" viewBox="0 0 261 55" fill="none" xmlns="http://www.w3.org/2000/svg">
<path d="M31.218 0.499996H32.218V-0.500004H31.218V0.499996ZM31.218 53V54H32.218V53H31.218ZM16.868 53H15.868V54H16.868V53ZM16.868 5.54L17.5479 4.80666L15.868 3.24929V5.54H16.868ZM23.588 11.77L23.7618 12.7548L25.7439 12.405L24.2679 11.0367L23.588 11.77ZM0.978047 15.76H-0.0219531V16.9519L1.15183 16.7448L0.978047 15.76ZM0.978047 4.56L0.77521 3.58079L-0.0219531 3.74591V4.56H0.978047ZM20.578 0.499996V-0.500004H20.4756L20.3752 -0.479218L20.578 0.499996ZM30.218 0.499996V53H32.218V0.499996H30.218ZM31.218 52H16.868V54H31.218V52ZM17.868 53V5.54H15.868V53H17.868ZM16.1882 6.27333L22.9082 12.5033L24.2679 11.0367L17.5479 4.80666L16.1882 6.27333ZM23.4143 10.7852L0.804261 14.7752L1.15183 16.7448L23.7618 12.7548L23.4143 10.7852ZM1.97805 15.76V4.56H-0.0219531V15.76H1.97805ZM1.18088 5.53921L20.7809 1.47921L20.3752 -0.479218L0.77521 3.58079L1.18088 5.53921ZM20.578 1.5H31.218V-0.500004H20.578V1.5ZM68.1485 52.02L67.7665 52.9442L67.7739 52.9472L67.7813 52.9502L68.1485 52.02ZM59.5385 46L58.7851 46.6575L59.5385 46ZM55.3385 37.11V36.11H54.1581L54.3521 37.2744L55.3385 37.11ZM68.9885 37.11L69.9452 36.8188L69.7295 36.11H68.9885V37.11ZM72.9085 42.36L72.3403 43.1829L72.3515 43.1906L72.3628 43.198L72.9085 42.36ZM85.9285 42.99L85.4717 42.1004L85.4618 42.1056L85.9285 42.99ZM89.9185 39.14L90.7927 39.6256L89.9185 39.14ZM89.9185 26.89L90.7927 26.4044L89.9185 26.89ZM85.9285 23.04L85.4617 23.9244L85.4717 23.9296L85.9285 23.04ZM72.9085 23.74L73.4542 24.578L73.461 24.5736L73.4677 24.5691L72.9085 23.74ZM68.9885 28.92V29.92H69.7451L69.9508 29.192L68.9885 28.92ZM55.3385 28.92L54.3518 28.7578L54.1607 29.92H55.3385V28.92ZM59.5385 20.03L60.286 20.6944L60.2919 20.6875L59.5385 20.03ZM68.1485 14.01L67.7708 13.0841L67.7665 13.0858L68.1485 14.01ZM93.0685 14.57L92.6347 15.471L92.6438 15.4753L93.0685 14.57ZM101.889 21.99L101.055 22.5419L101.889 21.99ZM101.889 44.04L101.055 43.4881L101.889 44.04ZM93.0685 51.46L93.4932 52.3653L93.0685 51.46ZM97.6885 36.9V37.9H98.6885V36.9H97.6885ZM74.3085 36.9H73.3085V37.9H74.3085V36.9ZM74.3085 29.13V28.13H73.3085V29.13H74.3085ZM97.6885 29.13H98.6885V28.13H97.6885V29.13ZM79.9785 53.12C75.747 53.12 71.9304 52.4378 68.5157 51.0898L67.7813 52.9502C71.4599 54.4022 75.5301 55.12 79.9785 55.12V53.12ZM68.5305 51.0958C65.1571 49.7015 62.4195 47.7803 60.2919 45.3425L58.7851 46.6575C61.1375 49.3531 64.1399 51.4452 67.7665 52.9442L68.5305 51.0958ZM60.2919 45.3425C58.1738 42.9154 56.8544 40.1228 56.3249 36.9456L54.3521 37.2744C54.9426 40.8172 56.4233 43.9513 58.7851 46.6575L60.2919 45.3425ZM55.3385 38.11H68.9885V36.11H55.3385V38.11ZM68.0318 37.4012C68.7551 39.7777 70.2068 41.7097 72.3403 43.1829L73.4767 41.5371C71.6903 40.3036 70.5286 38.7356 69.9452 36.8188L68.0318 37.4012ZM72.3628 43.198C74.5496 44.6219 77.077 45.32 79.9085 45.32V43.32C77.42 43.32 75.2808 42.7114 73.4542 41.522L72.3628 43.198ZM79.9085 45.32C82.3679 45.32 84.5422 44.8524 86.3953 43.8744L85.4618 42.1056C83.9549 42.9009 82.1158 43.32 79.9085 43.32V45.32ZM86.3853 43.8796C88.2861 42.9035 89.7622 41.4804 90.7927 39.6256L89.0444 38.6544C88.2081 40.1596 87.0242 41.3032 85.4717 42.1004L86.3853 43.8796ZM90.7927 39.6256C91.826 37.7656 92.3185 35.5599 92.3185 33.05H90.3185C90.3185 35.3001 89.8777 37.1544 89.0444 38.6544L90.7927 39.6256ZM92.3185 33.05C92.3185 30.4972 91.8275 28.267 90.7927 26.4044L89.0444 27.3756C89.8762 28.873 90.3185 30.7495 90.3185 33.05H92.3185ZM90.7927 26.4044C89.7622 24.5496 88.2861 23.1265 86.3853 22.1504L85.4717 23.9296C87.0242 24.7268 88.2081 25.8704 89.0444 27.3756L90.7927 26.4044ZM86.3953 22.1556C84.5422 21.1776 82.3679 20.71 79.9085 20.71V22.71C82.1158 22.71 83.9549 23.1291 85.4618 23.9244L86.3953 22.1556ZM79.9085 20.71C77.0698 20.71 74.5375 21.4352 72.3494 22.9109L73.4677 24.5691C75.2929 23.3381 77.4272 22.71 79.9085 22.71V20.71ZM72.3628 22.902C70.1695 24.3302 68.7037 26.2506 68.0262 28.648L69.9508 29.192C70.4866 27.2961 71.6342 25.7631 73.4542 24.578L72.3628 22.902ZM68.9885 27.92H55.3385V29.92H68.9885V27.92ZM56.3253 29.0822C56.8554 25.8575 58.1747 23.0695 60.2859 20.6944L58.7911 19.3656C56.4223 22.0305 54.9417 25.1692 54.3518 28.7578L56.3253 29.0822ZM60.2919 20.6875C62.4195 18.2497 65.1571 16.3285 68.5305 14.9342L67.7665 13.0858C64.1399 14.5848 61.1375 16.6769 58.7851 19.3725L60.2919 20.6875ZM68.5262 14.9359C71.938 13.5443 75.7509 12.84 79.9785 12.84V10.84C75.5262 10.84 71.4523 11.5824 67.7708 13.0841L68.5262 14.9359ZM79.9785 12.84C84.8017 12.84 89.0122 13.7268 92.6347 15.471L93.5023 13.669C89.5648 11.7732 85.0487 10.84 79.9785 10.84V12.84ZM92.6438 15.4753C96.2742 17.1785 99.0657 19.5364 101.055 22.5419L102.722 21.4381C100.511 18.0969 97.4228 15.5082 93.4932 13.6647L92.6438 15.4753ZM101.055 22.5419C103.035 25.5347 104.039 29.0251 104.039 33.05H106.039C106.039 28.6749 104.942 24.7919 102.722 21.4381L101.055 22.5419ZM104.039 33.05C104.039 37.0258 103.036 40.4934 101.055 43.4881L102.722 44.5919C104.941 41.2399 106.039 37.3809 106.039 33.05H104.039ZM101.055 43.4881C99.0657 46.4936 96.2742 48.8515 92.6438 50.5547L93.4932 52.3653C97.4228 50.5218 100.511 47.9331 102.722 44.5919L101.055 43.4881ZM92.6438 50.5547C89.019 52.2552 84.8052 53.12 79.9785 53.12V55.12C85.0452 55.12 89.558 54.2115 93.4932 52.3653L92.6438 50.5547ZM97.6885 35.9H74.3085V37.9H97.6885V35.9ZM75.3085 36.9V29.13H73.3085V36.9H75.3085ZM74.3085 30.13H97.6885V28.13H74.3085V30.13ZM96.6885 29.13V36.9H98.6885V29.13H96.6885ZM121.988 17.93V16.93H120.988V17.93H121.988ZM136.338 17.93H137.338V16.93H136.338V17.93ZM136.338 53V54H137.338V53H136.338ZM121.988 53H120.988V54H121.988V53ZM106.798 13.03V12.03H105.798V13.03H106.798ZM151.528 13.03H152.528V12.03H151.528V13.03ZM151.528 23.81V24.81H152.528V23.81H151.528ZM106.798 23.81H105.798V24.81H106.798V23.81ZM121.988 18.93H136.338V16.93H121.988V18.93ZM135.338 17.93V53H137.338V17.93H135.338ZM136.338 52H121.988V54H136.338V52ZM122.988 53V17.93H120.988V53H122.988ZM106.798 14.03H151.528V12.03H106.798V14.03ZM150.528 13.03V23.81H152.528V13.03H150.528ZM151.528 22.81H106.798V24.81H151.528V22.81ZM107.798 23.81V13.03H105.798V23.81H107.798ZM191.317 53L190.325 53.1252L190.436 54H191.317V53ZM189.497 38.58L188.551 38.2566L188.476 38.4756L188.505 38.7052L189.497 38.58ZM191.387 33.05L192.334 33.3734L192.444 33.05L192.334 32.7266L191.387 33.05ZM189.497 27.52L188.505 27.3954L188.476 27.6247L188.551 27.8434L189.497 27.52ZM191.317 13.03V12.03H190.435L190.325 12.9054L191.317 13.03ZM206.157 13.03L207.149 13.1553L207.292 12.03H206.157V13.03ZM203.637 32.98L202.645 32.8547L202.629 32.9798L202.645 33.1049L203.637 32.98ZM206.157 53V54H207.291L207.15 52.8751L206.157 53ZM194.677 33.05L195.665 33.2037L195.688 33.0578L195.668 32.9116L194.677 33.05ZM190.757 44.11L189.906 43.5845L189.901 43.5937L190.757 44.11ZM183.407 51.53L183.914 52.3923L183.918 52.3899L183.407 51.53ZM162.967 51.53L162.451 52.3863L162.459 52.3911L162.467 52.3957L162.967 51.53ZM156.037 44.11L155.151 44.5726L155.154 44.5779L156.037 44.11ZM156.037 21.92L155.154 21.4521L156.037 21.92ZM162.967 14.5L162.457 13.6401L162.451 13.6437L162.967 14.5ZM183.407 14.5L182.891 15.3563L182.899 15.3611L182.907 15.3657L183.407 14.5ZM190.827 21.85L189.977 22.3755L189.98 22.3811L190.827 21.85ZM169.197 38.3L168.308 38.758L168.314 38.7685L168.319 38.7789L169.197 38.3ZM172.627 41.94L172.105 42.7926L172.115 42.7988L172.125 42.8048L172.627 41.94ZM183.127 41.94L183.565 42.8392L183.575 42.8345L183.584 42.8296L183.127 41.94ZM187.677 38.3L188.44 38.947L187.677 38.3ZM190.617 33.05L191.566 33.3662L191.67 33.0537L191.568 32.7404L190.617 33.05ZM187.677 27.73L188.44 27.083L187.677 27.73ZM172.627 24.09L172.105 23.2374L172.627 24.09ZM169.197 27.73L168.319 27.2511L168.314 27.2615L168.308 27.272L169.197 27.73ZM192.309 52.8748L190.489 38.4548L188.505 38.7052L190.325 53.1252L192.309 52.8748ZM190.444 38.9034L192.334 33.3734L190.441 32.7266L188.551 38.2566L190.444 38.9034ZM192.334 32.7266L190.444 27.1966L188.551 27.8434L190.441 33.3734L192.334 32.7266ZM190.49 27.6446L192.31 13.1546L190.325 12.9054L188.505 27.3954L190.49 27.6446ZM191.317 14.03H206.157V12.03H191.317V14.03ZM205.165 12.9047L202.645 32.8547L204.629 33.1053L207.149 13.1553L205.165 12.9047ZM202.645 33.1049L205.165 53.1249L207.15 52.8751L204.63 32.8551L202.645 33.1049ZM206.157 52H191.317V54H206.157V52ZM193.689 32.8963C193.054 36.9827 191.787 40.5395 189.907 43.5845L191.608 44.6355C193.647 41.3339 194.994 37.5172 195.665 33.2037L193.689 32.8963ZM189.901 43.5937C188.067 46.6354 185.732 48.9866 182.897 50.6701L183.918 52.3899C187.056 50.5267 189.621 47.9312 191.614 44.6263L189.901 43.5937ZM182.901 50.6677C180.131 52.2947 176.949 53.12 173.327 53.12V55.12C177.266 55.12 180.804 54.2187 183.914 52.3923L182.901 50.6677ZM173.327 53.12C169.559 53.12 166.283 52.2915 163.468 50.6643L162.467 52.3957C165.625 54.2218 169.256 55.12 173.327 55.12V53.12ZM163.484 50.6737C160.707 48.9985 158.52 46.6627 156.921 43.6421L155.154 44.5779C156.914 47.9039 159.348 50.5148 162.451 52.3863L163.484 50.6737ZM156.924 43.6474C155.329 40.5896 154.517 37.0656 154.517 33.05H152.517C152.517 37.3411 153.386 41.1904 155.151 44.5726L156.924 43.6474ZM154.517 33.05C154.517 28.9367 155.33 25.3929 156.921 22.3879L155.154 21.4521C153.384 24.7938 152.517 28.67 152.517 33.05H154.517ZM156.921 22.3879C158.52 19.3673 160.707 17.0315 163.484 15.3563L162.451 13.6437C159.348 15.5152 156.914 18.1261 155.154 21.4521L156.921 22.3879ZM163.478 15.3599C166.291 13.6896 169.563 12.84 173.327 12.84V10.84C169.251 10.84 165.617 11.7637 162.457 13.6401L163.478 15.3599ZM173.327 12.84C176.944 12.84 180.122 13.6863 182.891 15.3563L183.924 13.6437C180.812 11.767 177.27 10.84 173.327 10.84V12.84ZM182.907 15.3657C185.739 17.0031 188.096 19.3311 189.977 22.3755L191.678 21.3245C189.639 18.0223 187.049 15.4503 183.908 13.6343L182.907 15.3657ZM189.98 22.3811C191.853 25.3682 193.096 28.9622 193.687 33.1884L195.668 32.9116C195.045 28.4578 193.722 24.5851 191.675 21.3189L189.98 22.3811ZM167.007 33.05C167.007 35.1482 167.433 37.0587 168.308 38.758L170.086 37.842C169.375 36.4613 169.007 34.8718 169.007 33.05H167.007ZM168.319 38.7789C169.24 40.4669 170.504 41.8114 172.105 42.7926L173.15 41.0874C171.858 40.2953 170.834 39.2131 170.075 37.8211L168.319 38.7789ZM172.125 42.8048C173.742 43.7433 175.575 44.2 177.597 44.2V42.2C175.886 42.2 174.406 41.8167 173.129 41.0752L172.125 42.8048ZM177.597 44.2C179.706 44.2 181.699 43.747 183.565 42.8392L182.69 41.0408C181.102 41.813 179.409 42.2 177.597 42.2V44.2ZM183.584 42.8296C185.432 41.8805 187.052 40.583 188.44 38.947L186.915 37.653C185.69 39.097 184.276 40.2262 182.671 41.0504L183.584 42.8296ZM188.44 38.947C189.831 37.3074 190.873 35.4445 191.566 33.3662L189.669 32.7338C189.055 34.5755 188.137 36.2126 186.915 37.653L188.44 38.947ZM191.568 32.7404C190.876 30.6158 189.834 28.7266 188.44 27.083L186.915 28.377C188.134 29.8134 189.052 31.4709 189.666 33.3596L191.568 32.7404ZM188.44 27.083C187.052 25.447 185.432 24.1495 183.584 23.2004L182.671 24.9796C184.276 25.8038 185.69 26.933 186.915 28.377L188.44 27.083ZM183.584 23.2004C181.715 22.2405 179.715 21.76 177.597 21.76V23.76C179.4 23.76 181.087 24.1662 182.671 24.9796L183.584 23.2004ZM177.597 21.76C175.565 21.76 173.724 22.2448 172.105 23.2374L173.15 24.9426C174.424 24.1618 175.896 23.76 177.597 23.76V21.76ZM172.105 23.2374C170.504 24.2186 169.24 25.5631 168.319 27.2511L170.075 28.2089C170.834 26.8169 171.857 25.7347 173.15 24.9426L172.105 23.2374ZM168.308 27.272C167.431 28.9746 167.007 30.9093 167.007 33.05H169.007C169.007 31.1774 169.377 29.5654 170.086 28.188L168.308 27.272ZM260.209 13.03H261.209V12.03H260.209V13.03ZM260.209 53V54H261.209V53H260.209ZM245.859 53H244.859V54H245.859V53ZM245.859 17.16L246.563 16.4491L244.859 14.7639V17.16H245.859ZM252.439 23.67V24.67H254.872L253.143 22.9591L252.439 23.67ZM220.799 23.67L220.096 22.9591L218.367 24.67H220.799V23.67ZM227.379 17.16H228.379V14.7639L226.676 16.4491L227.379 17.16ZM227.379 53V54H228.379V53H227.379ZM213.029 53H212.029V54H213.029V53ZM213.029 13.03V12.03H212.029V13.03H213.029ZM259.209 13.03V53H261.209V13.03H259.209ZM260.209 52H245.859V54H260.209V52ZM246.859 53V17.16H244.859V53H246.859ZM245.156 17.8709L251.736 24.3809L253.143 22.9591L246.563 16.4491L245.156 17.8709ZM252.439 22.67H220.799V24.67H252.439V22.67ZM221.503 24.3809L228.083 17.8709L226.676 16.4491L220.096 22.9591L221.503 24.3809ZM226.379 17.16V53H228.379V17.16H226.379ZM227.379 52H213.029V54H227.379V52ZM214.029 53V13.03H212.029V53H214.029ZM213.029 14.03H260.209V12.03H213.029V14.03Z" fill="black"/>
</svg>
