<svg width="281" height="56" viewBox="0 0 281 56" fill="none" xmlns="http://www.w3.org/2000/svg">
<path d="M0.381953 20.4L-0.61573 20.332L-0.68855 21.4H0.381953V20.4ZM4.44195 9.76L5.21809 10.3906L5.22282 10.3847L4.44195 9.76ZM14.102 2.83L14.4696 3.75998L14.4752 3.75774L14.102 2.83ZM40.492 2.62L40.1082 3.54343L40.1154 3.54642L40.1226 3.54929L40.492 2.62ZM49.802 25.3L50.6471 25.8347L50.6519 25.8269L49.802 25.3ZM43.012 32.09L43.5921 32.9046L43.6001 32.8987L43.012 32.09ZM30.902 39.02L30.4648 38.1205L30.4547 38.1256L30.902 39.02ZM16.482 46.23L15.4932 46.3793L15.6985 47.7398L16.9292 47.1244L16.482 46.23ZM15.922 42.52V41.52H14.7597L14.9332 42.6693L15.922 42.52ZM53.442 42.52H54.442V41.52H53.442V42.52ZM53.442 54V55H54.442V54H53.442ZM1.50195 54H0.501953V55H1.50195V54ZM1.50195 43.92L1.01195 43.0483L0.501953 43.335V43.92H1.50195ZM24.042 31.25L24.532 32.1217L24.5393 32.1175L24.042 31.25ZM32.162 26.21L32.7394 27.0264L32.7432 27.0237L32.162 26.21ZM36.292 22.36L35.4804 21.7757L35.4726 21.7866L35.465 21.7977L36.292 22.36ZM36.362 14.94L35.541 15.5111L35.5554 15.5316L35.5707 15.5514L36.362 14.94ZM32.932 12.42L33.2985 11.4896L32.932 12.42ZM20.402 12.77L20.8103 13.6828L20.8202 13.6784L20.83 13.6737L20.402 12.77ZM16.412 15.99L17.2394 16.5515L17.244 16.5448L17.2484 16.538L16.412 15.99ZM14.802 20.4V21.4H15.6942L15.7955 20.5135L14.802 20.4ZM1.37964 20.468C1.64663 16.5521 2.93079 13.2057 5.21807 10.3906L3.66584 9.12941C1.09978 12.2876 -0.322725 16.0346 -0.61573 20.332L1.37964 20.468ZM5.22282 10.3847C7.52896 7.50202 10.5999 5.28986 14.4696 3.75996L13.7343 1.90004C9.57738 3.54347 6.20828 5.95131 3.66108 9.1353L5.22282 10.3847ZM14.4752 3.75774C18.3989 2.17923 22.8427 1.38 27.822 1.38V-0.620003C22.6279 -0.620003 17.925 0.214104 13.7287 1.90226L14.4752 3.75774ZM27.822 1.38C32.5751 1.38 36.6625 2.11146 40.1082 3.54343L40.8757 1.69657C37.1347 0.141865 32.7755 -0.620003 27.822 -0.620003V1.38ZM40.1226 3.54929C43.6269 4.94202 46.2911 6.87364 48.1688 9.31903L49.7551 8.10097C47.6195 5.31969 44.637 3.19131 40.8613 1.6907L40.1226 3.54929ZM48.1688 9.31903C50.0346 11.7489 50.972 14.5656 50.972 17.81H52.972C52.972 14.1478 51.9027 10.8978 49.7551 8.10097L48.1688 9.31903ZM50.972 17.81C50.972 20.2776 50.3039 22.5926 48.9521 24.7731L50.6519 25.8269C52.1933 23.3407 52.972 20.6624 52.972 17.81H50.972ZM48.9569 24.7654C47.5993 26.9113 45.4401 29.0876 42.4238 31.2813L43.6001 32.8987C46.7438 30.6124 49.1113 28.2621 50.647 25.8346L48.9569 24.7654ZM42.4319 31.2754C39.4127 33.4254 35.4291 35.7081 30.4649 38.1206L31.3391 39.9194C36.3615 37.4786 40.4512 35.1412 43.592 32.9046L42.4319 31.2754ZM30.4547 38.1256L16.0347 45.3356L16.9292 47.1244L31.3492 39.9144L30.4547 38.1256ZM17.4708 46.0807L16.9108 42.3707L14.9332 42.6693L15.4932 46.3793L17.4708 46.0807ZM15.922 43.52H53.442V41.52H15.922V43.52ZM52.442 42.52V54H54.442V42.52H52.442ZM53.442 53H1.50195V55H53.442V53ZM2.50195 54V43.92H0.501953V54H2.50195ZM1.99196 44.7917L24.532 32.1217L23.552 30.3783L1.01195 43.0483L1.99196 44.7917ZM24.5393 32.1175C28.0503 30.1046 30.7883 28.4065 32.7394 27.0264L31.5845 25.3936C29.7089 26.7202 27.0336 28.3821 23.5446 30.3825L24.5393 32.1175ZM32.7432 27.0237C34.7412 25.5966 36.2283 24.232 37.1189 22.9223L35.465 21.7977C34.769 22.8213 33.5027 24.0234 31.5807 25.3963L32.7432 27.0237ZM37.1035 22.9443C38.0531 21.6254 38.552 20.1874 38.552 18.65H36.552C36.552 19.7259 36.2108 20.7613 35.4804 21.7757L37.1035 22.9443ZM38.552 18.65C38.552 17.0089 38.0974 15.5505 37.1532 14.3286L35.5707 15.5514C36.2131 16.3829 36.552 17.3978 36.552 18.65H38.552ZM37.1829 14.3689C36.2969 13.0954 34.9734 12.1494 33.2985 11.4896L32.5654 13.3504C33.9705 13.9039 34.9337 14.6379 35.541 15.5111L37.1829 14.3689ZM33.2985 11.4896C31.6085 10.8238 29.5858 10.51 27.262 10.51V12.51C29.4181 12.51 31.1754 12.8028 32.5654 13.3504L33.2985 11.4896ZM27.262 10.51C24.3727 10.51 21.9255 10.9418 19.9739 11.8663L20.83 13.6737C22.425 12.9182 24.5512 12.51 27.262 12.51V10.51ZM19.9936 11.8572C18.081 12.7128 16.5864 13.899 15.5755 15.442L17.2484 16.538C18.0108 15.3744 19.1762 14.4139 20.8103 13.6828L19.9936 11.8572ZM15.5845 15.4285C14.6033 16.8744 14.0127 18.4994 13.8084 20.2865L15.7955 20.5135C15.9646 19.0339 16.4473 17.7189 17.2394 16.5515L15.5845 15.4285ZM14.802 19.4H0.381953V21.4H14.802V19.4ZM88.2325 53.02L87.8505 53.9442L87.8579 53.9472L87.8653 53.9502L88.2325 53.02ZM79.6225 47L78.8691 47.6575L79.6225 47ZM75.4225 38.11V37.11H74.242L74.4361 38.2744L75.4225 38.11ZM89.0725 38.11L90.0292 37.8188L89.8134 37.11H89.0725V38.11ZM92.9925 43.36L92.4243 44.1829L92.4355 44.1906L92.4468 44.198L92.9925 43.36ZM106.012 43.99L105.556 43.1004L105.546 43.1056L106.012 43.99ZM110.003 40.14L110.877 40.6256L110.003 40.14ZM110.003 27.89L110.877 27.4044L110.003 27.89ZM106.012 24.04L105.546 24.9244L105.556 24.9296L106.012 24.04ZM92.9925 24.74L93.5382 25.578L93.5449 25.5736L93.5516 25.5691L92.9925 24.74ZM89.0725 29.92V30.92H89.8291L90.0348 30.192L89.0725 29.92ZM75.4225 29.92L74.4357 29.7578L74.2447 30.92H75.4225V29.92ZM79.6225 21.03L80.3699 21.6944L80.3759 21.6875L79.6225 21.03ZM88.2325 15.01L87.8548 14.0841L87.8505 14.0858L88.2325 15.01ZM113.153 15.57L112.719 16.471L112.728 16.4753L113.153 15.57ZM121.973 22.99L121.139 23.5419L121.973 22.99ZM121.973 45.04L121.139 44.4881L121.973 45.04ZM113.153 52.46L113.577 53.3653L113.153 52.46ZM117.772 37.9V38.9H118.772V37.9H117.772ZM94.3925 37.9H93.3925V38.9H94.3925V37.9ZM94.3925 30.13V29.13H93.3925V30.13H94.3925ZM117.772 30.13H118.772V29.13H117.772V30.13ZM100.062 54.12C95.831 54.12 92.0144 53.4378 88.5997 52.0898L87.8653 53.9502C91.5439 55.4022 95.614 56.12 100.062 56.12V54.12ZM88.6145 52.0958C85.2411 50.7015 82.5035 48.7803 80.3759 46.3425L78.8691 47.6575C81.2215 50.3531 84.2239 52.4452 87.8505 53.9442L88.6145 52.0958ZM80.3759 46.3425C78.2578 43.9154 76.9384 41.1228 76.4089 37.9456L74.4361 38.2744C75.0266 41.8172 76.5072 44.9513 78.8691 47.6575L80.3759 46.3425ZM75.4225 39.11H89.0725V37.11H75.4225V39.11ZM88.1158 38.4012C88.8391 40.7777 90.2908 42.7097 92.4243 44.1829L93.5607 42.5371C91.7742 41.3036 90.6125 39.7356 90.0292 37.8188L88.1158 38.4012ZM92.4468 44.198C94.6335 45.6219 97.161 46.32 99.9925 46.32V44.32C97.504 44.32 95.3648 43.7114 93.5382 42.522L92.4468 44.198ZM99.9925 46.32C102.452 46.32 104.626 45.8524 106.479 44.8744L105.546 43.1056C104.039 43.9009 102.2 44.32 99.9925 44.32V46.32ZM106.469 44.8796C108.37 43.9035 109.846 42.4804 110.877 40.6256L109.128 39.6544C108.292 41.1596 107.108 42.3032 105.556 43.1004L106.469 44.8796ZM110.877 40.6256C111.91 38.7656 112.402 36.5599 112.402 34.05H110.402C110.402 36.3001 109.962 38.1544 109.128 39.6544L110.877 40.6256ZM112.402 34.05C112.402 31.4972 111.911 29.267 110.877 27.4044L109.128 28.3756C109.96 29.873 110.402 31.7495 110.402 34.05H112.402ZM110.877 27.4044C109.846 25.5496 108.37 24.1265 106.469 23.1504L105.556 24.9296C107.108 25.7268 108.292 26.8704 109.128 28.3756L110.877 27.4044ZM106.479 23.1556C104.626 22.1776 102.452 21.71 99.9925 21.71V23.71C102.2 23.71 104.039 24.1291 105.546 24.9244L106.479 23.1556ZM99.9925 21.71C97.1538 21.71 94.6215 22.4352 92.4334 23.9109L93.5516 25.5691C95.3768 24.3381 97.5112 23.71 99.9925 23.71V21.71ZM92.4468 23.902C90.2535 25.3302 88.7877 27.2506 88.1102 29.648L90.0348 30.192C90.5706 28.2961 91.7182 26.7631 93.5382 25.578L92.4468 23.902ZM89.0725 28.92H75.4225V30.92H89.0725V28.92ZM76.4093 30.0822C76.9393 26.8575 78.2587 24.0695 80.3699 21.6944L78.8751 20.3656C76.5063 23.0305 75.0257 26.1692 74.4357 29.7578L76.4093 30.0822ZM80.3759 21.6875C82.5035 19.2497 85.2411 17.3285 88.6145 15.9342L87.8505 14.0858C84.2239 15.5848 81.2215 17.6769 78.8691 20.3725L80.3759 21.6875ZM88.6102 15.9359C92.022 14.5443 95.8349 13.84 100.062 13.84V11.84C95.6101 11.84 91.5363 12.5824 87.8548 14.0841L88.6102 15.9359ZM100.062 13.84C104.886 13.84 109.096 14.7268 112.719 16.471L113.586 14.669C109.649 12.7732 105.133 11.84 100.062 11.84V13.84ZM112.728 16.4753C116.358 18.1785 119.15 20.5364 121.139 23.5419L122.806 22.4381C120.595 19.0969 117.507 16.5082 113.577 14.6647L112.728 16.4753ZM121.139 23.5419C123.119 26.5347 124.123 30.0251 124.123 34.05H126.122C126.122 29.6749 125.026 25.7919 122.806 22.4381L121.139 23.5419ZM124.123 34.05C124.123 38.0258 123.12 41.4934 121.139 44.4881L122.806 45.5919C125.025 42.2399 126.122 38.3809 126.122 34.05H124.123ZM121.139 44.4881C119.15 47.4936 116.358 49.8515 112.728 51.5547L113.577 53.3653C117.507 51.5218 120.595 48.9331 122.806 45.5919L121.139 44.4881ZM112.728 51.5547C109.103 53.2552 104.889 54.12 100.062 54.12V56.12C105.129 56.12 109.642 55.2115 113.577 53.3653L112.728 51.5547ZM117.772 36.9H94.3925V38.9H117.772V36.9ZM95.3925 37.9V30.13H93.3925V37.9H95.3925ZM94.3925 31.13H117.772V29.13H94.3925V31.13ZM116.772 30.13V37.9H118.772V30.13H116.772ZM142.072 18.93V17.93H141.072V18.93H142.072ZM156.422 18.93H157.422V17.93H156.422V18.93ZM156.422 54V55H157.422V54H156.422ZM142.072 54H141.072V55H142.072V54ZM126.882 14.03V13.03H125.882V14.03H126.882ZM171.612 14.03H172.612V13.03H171.612V14.03ZM171.612 24.81V25.81H172.612V24.81H171.612ZM126.882 24.81H125.882V25.81H126.882V24.81ZM142.072 19.93H156.422V17.93H142.072V19.93ZM155.422 18.93V54H157.422V18.93H155.422ZM156.422 53H142.072V55H156.422V53ZM143.072 54V18.93H141.072V54H143.072ZM126.882 15.03H171.612V13.03H126.882V15.03ZM170.612 14.03V24.81H172.612V14.03H170.612ZM171.612 23.81H126.882V25.81H171.612V23.81ZM127.882 24.81V14.03H125.882V24.81H127.882ZM211.401 54L210.409 54.1252L210.52 55H211.401V54ZM209.581 39.58L208.635 39.2566L208.56 39.4756L208.589 39.7052L209.581 39.58ZM211.471 34.05L212.418 34.3734L212.528 34.05L212.418 33.7266L211.471 34.05ZM209.581 28.52L208.589 28.3954L208.56 28.6247L208.635 28.8434L209.581 28.52ZM211.401 14.03V13.03H210.519L210.409 13.9054L211.401 14.03ZM226.241 14.03L227.233 14.1553L227.376 13.03H226.241V14.03ZM223.721 33.98L222.729 33.8547L222.713 33.9798L222.729 34.1049L223.721 33.98ZM226.241 54V55H227.375L227.234 53.8751L226.241 54ZM214.761 34.05L215.749 34.2037L215.772 34.0578L215.752 33.9116L214.761 34.05ZM210.841 45.11L209.99 44.5845L209.985 44.5937L210.841 45.11ZM203.491 52.53L203.998 53.3923L204.002 53.3899L203.491 52.53ZM183.051 52.53L182.535 53.3863L182.543 53.3911L182.551 53.3957L183.051 52.53ZM176.121 45.11L175.235 45.5726L175.238 45.5779L176.121 45.11ZM176.121 22.92L175.238 22.4521L176.121 22.92ZM183.051 15.5L182.541 14.6401L182.535 14.6437L183.051 15.5ZM203.491 15.5L202.975 16.3563L202.983 16.3611L202.991 16.3657L203.491 15.5ZM210.911 22.85L210.061 23.3755L210.064 23.3811L210.911 22.85ZM189.281 39.3L188.392 39.758L188.398 39.7685L188.403 39.7789L189.281 39.3ZM192.711 42.94L192.189 43.7926L192.199 43.7988L192.209 43.8048L192.711 42.94ZM203.211 42.94L203.649 43.8392L203.659 43.8345L203.668 43.8296L203.211 42.94ZM207.761 39.3L208.524 39.947L207.761 39.3ZM210.701 34.05L211.65 34.3662L211.754 34.0537L211.652 33.7404L210.701 34.05ZM207.761 28.73L208.524 28.083L207.761 28.73ZM192.711 25.09L192.189 24.2374L192.711 25.09ZM189.281 28.73L188.403 28.2511L188.398 28.2615L188.392 28.272L189.281 28.73ZM212.393 53.8748L210.573 39.4548L208.589 39.7052L210.409 54.1252L212.393 53.8748ZM210.528 39.9034L212.418 34.3734L210.525 33.7266L208.635 39.2566L210.528 39.9034ZM212.418 33.7266L210.528 28.1966L208.635 28.8434L210.525 34.3734L212.418 33.7266ZM210.574 28.6446L212.394 14.1546L210.409 13.9054L208.589 28.3954L210.574 28.6446ZM211.401 15.03H226.241V13.03H211.401V15.03ZM225.249 13.9047L222.729 33.8547L224.713 34.1053L227.233 14.1553L225.249 13.9047ZM222.729 34.1049L225.249 54.1249L227.234 53.8751L224.714 33.8551L222.729 34.1049ZM226.241 53H211.401V55H226.241V53ZM213.773 33.8963C213.138 37.9827 211.871 41.5395 209.991 44.5845L211.692 45.6355C213.731 42.3339 215.078 38.5172 215.749 34.2037L213.773 33.8963ZM209.985 44.5937C208.151 47.6354 205.816 49.9866 202.981 51.6701L204.002 53.3899C207.14 51.5267 209.705 48.9312 211.698 45.6263L209.985 44.5937ZM202.985 51.6677C200.215 53.2947 197.033 54.12 193.411 54.12V56.12C197.35 56.12 200.888 55.2187 203.998 53.3923L202.985 51.6677ZM193.411 54.12C189.643 54.12 186.367 53.2915 183.552 51.6643L182.551 53.3957C185.709 55.2218 189.34 56.12 193.411 56.12V54.12ZM183.568 51.6737C180.79 49.9985 178.604 47.6627 177.005 44.6421L175.238 45.5779C176.998 48.9039 179.432 51.5148 182.535 53.3863L183.568 51.6737ZM177.008 44.6474C175.412 41.5896 174.601 38.0656 174.601 34.05H172.601C172.601 38.3411 173.47 42.1904 175.235 45.5726L177.008 44.6474ZM174.601 34.05C174.601 29.9367 175.414 26.3929 177.005 23.3879L175.238 22.4521C173.468 25.7938 172.601 29.67 172.601 34.05H174.601ZM177.005 23.3879C178.604 20.3673 180.79 18.0315 183.568 16.3563L182.535 14.6437C179.432 16.5152 176.998 19.1261 175.238 22.4521L177.005 23.3879ZM183.562 16.3599C186.375 14.6896 189.647 13.84 193.411 13.84V11.84C189.335 11.84 185.701 12.7637 182.541 14.6401L183.562 16.3599ZM193.411 13.84C197.028 13.84 200.206 14.6863 202.975 16.3563L204.008 14.6437C200.896 12.767 197.354 11.84 193.411 11.84V13.84ZM202.991 16.3657C205.823 18.0031 208.18 20.3311 210.061 23.3755L211.762 22.3245C209.723 19.0223 207.133 16.4503 203.992 14.6343L202.991 16.3657ZM210.064 23.3811C211.937 26.3682 213.18 29.9622 213.771 34.1884L215.752 33.9116C215.129 29.4578 213.806 25.5851 211.759 22.3189L210.064 23.3811ZM187.091 34.05C187.091 36.1482 187.517 38.0587 188.392 39.758L190.17 38.842C189.459 37.4613 189.091 35.8718 189.091 34.05H187.091ZM188.403 39.7789C189.324 41.4669 190.588 42.8114 192.189 43.7926L193.234 42.0874C191.941 41.2953 190.918 40.2131 190.159 38.8211L188.403 39.7789ZM192.209 43.8048C193.826 44.7433 195.659 45.2 197.681 45.2V43.2C195.97 43.2 194.49 42.8167 193.213 42.0752L192.209 43.8048ZM197.681 45.2C199.79 45.2 201.783 44.747 203.649 43.8392L202.774 42.0408C201.186 42.813 199.493 43.2 197.681 43.2V45.2ZM203.668 43.8296C205.516 42.8805 207.136 41.583 208.524 39.947L206.999 38.653C205.774 40.097 204.36 41.2262 202.755 42.0504L203.668 43.8296ZM208.524 39.947C209.915 38.3074 210.957 36.4445 211.65 34.3662L209.753 33.7338C209.139 35.5755 208.221 37.2126 206.999 38.653L208.524 39.947ZM211.652 33.7404C210.96 31.6158 209.918 29.7266 208.524 28.083L206.999 29.377C208.218 30.8134 209.136 32.4709 209.75 34.3596L211.652 33.7404ZM208.524 28.083C207.136 26.447 205.516 25.1495 203.668 24.2004L202.755 25.9796C204.36 26.8038 205.774 27.933 206.999 29.377L208.524 28.083ZM203.668 24.2004C201.799 23.2405 199.799 22.76 197.681 22.76V24.76C199.484 24.76 201.171 25.1662 202.755 25.9796L203.668 24.2004ZM197.681 22.76C195.649 22.76 193.808 23.2448 192.189 24.2374L193.234 25.9426C194.508 25.1618 195.98 24.76 197.681 24.76V22.76ZM192.189 24.2374C190.588 25.2186 189.324 26.5631 188.403 28.2511L190.159 29.2089C190.918 27.8169 191.941 26.7347 193.234 25.9426L192.189 24.2374ZM188.392 28.272C187.515 29.9746 187.091 31.9093 187.091 34.05H189.091C189.091 32.1774 189.461 30.5654 190.17 29.188L188.392 28.272ZM280.293 14.03H281.293V13.03H280.293V14.03ZM280.293 54V55H281.293V54H280.293ZM265.943 54H264.943V55H265.943V54ZM265.943 18.16L266.647 17.4491L264.943 15.7639V18.16H265.943ZM272.523 24.67V25.67H274.956L273.227 23.9591L272.523 24.67ZM240.883 24.67L240.18 23.9591L238.451 25.67H240.883V24.67ZM247.463 18.16H248.463V15.7639L246.76 17.4491L247.463 18.16ZM247.463 54V55H248.463V54H247.463ZM233.113 54H232.113V55H233.113V54ZM233.113 14.03V13.03H232.113V14.03H233.113ZM279.293 14.03V54H281.293V14.03H279.293ZM280.293 53H265.943V55H280.293V53ZM266.943 54V18.16H264.943V54H266.943ZM265.24 18.8709L271.82 25.3809L273.227 23.9591L266.647 17.4491L265.24 18.8709ZM272.523 23.67H240.883V25.67H272.523V23.67ZM241.587 25.3809L248.167 18.8709L246.76 17.4491L240.18 23.9591L241.587 25.3809ZM246.463 18.16V54H248.463V18.16H246.463ZM247.463 53H233.113V55H247.463V53ZM234.113 54V14.03H232.113V54H234.113ZM233.113 15.03H280.293V13.03H233.113V15.03Z" fill="black"/>
</svg>
