<svg width="282" height="56" viewBox="0 0 282 56" fill="none" xmlns="http://www.w3.org/2000/svg">
<path d="M2.29195 18.44L1.29551 18.3558L1.20388 19.44H2.29195V18.44ZM5.86195 9.41L6.65207 10.023L6.65708 10.0164L5.86195 9.41ZM14.962 2.83L15.3427 3.75468L15.3427 3.75468L14.962 2.83ZM42.122 2.2L41.802 3.14745L41.8057 3.14868L42.122 2.2ZM50.522 7.31L49.7762 7.97637L49.7842 7.98501L50.522 7.31ZM51.362 21.52L50.5574 20.9261L50.5528 20.9324L50.5482 20.9388L51.362 21.52ZM44.642 26.21L44.9883 27.1481L44.9962 27.1452L44.642 26.21ZM32.742 27.82H31.742V28.8105L32.7324 28.82L32.742 27.82ZM32.742 26.35L32.7012 25.3508L31.742 25.39V26.35H32.742ZM51.992 31.46L51.2495 32.13L51.2585 32.1398L51.992 31.46ZM51.572 47.21L52.3414 47.8488L51.572 47.21ZM42.612 53.02L42.2756 52.0783L42.272 52.0795L42.612 53.02ZM14.052 52.88L13.7067 53.8185L14.052 52.88ZM4.53195 46.51L3.75108 47.1347L3.75681 47.1418L3.76266 47.1489L4.53195 46.51ZM0.961953 36.71V35.71H-0.0762497L-0.0373445 36.7475L0.961953 36.71ZM15.382 36.71L16.3694 36.552L16.2347 35.71H15.382V36.71ZM19.022 42.1L18.4989 42.9524L18.5075 42.9575L19.022 42.1ZM36.872 42.31L36.3846 41.4368L36.3758 41.4418L36.872 42.31ZM38.902 34.68L38.1076 35.2874L38.1186 35.3018L38.13 35.3157L38.902 34.68ZM35.612 32.93L35.3561 33.8967L35.3694 33.9002L35.3829 33.9034L35.612 32.93ZM19.932 32.3H18.932V33.3H19.932V32.3ZM19.932 22.5V21.5H18.932V22.5H19.932ZM36.662 21.03L36.1133 20.194L36.1072 20.198L36.1011 20.2021L36.662 21.03ZM36.312 12.98L35.8081 13.8438L35.8184 13.8497L36.312 12.98ZM16.782 18.44V19.44H17.6261L17.7678 18.6078L16.782 18.44ZM3.2884 18.5242C3.55162 15.4094 4.66667 12.5819 6.65204 10.023L5.07187 8.797C2.85724 11.6514 1.59229 14.8439 1.29551 18.3558L3.2884 18.5242ZM6.65708 10.0164C8.62671 7.43404 11.5011 5.33651 15.3427 3.75468L14.5812 1.90532C10.4895 3.59015 7.2972 5.87929 5.06683 8.80355L6.65708 10.0164ZM15.3427 3.75468C19.1561 2.18445 23.8488 1.38 29.452 1.38V-0.620003C23.6684 -0.620003 18.7011 0.208878 14.5812 1.90532L15.3427 3.75468ZM29.452 1.38C34.2254 1.38 38.336 1.97709 41.802 3.14745L42.4419 1.25255C38.7213 -0.00375938 34.3852 -0.620003 29.452 -0.620003V1.38ZM41.8057 3.14868C45.3294 4.32324 47.9625 5.94664 49.7763 7.97633L51.2676 6.64367C49.1614 4.28668 46.1945 2.50342 42.4382 1.25132L41.8057 3.14868ZM49.7842 7.98501C51.6213 9.99304 52.532 12.3419 52.532 15.08H54.532C54.532 11.8448 53.436 9.01362 51.2598 6.63498L49.7842 7.98501ZM52.532 15.08C52.532 17.1897 51.8831 19.13 50.5574 20.9261L52.1665 22.1138C53.7342 19.99 54.532 17.6369 54.532 15.08H52.532ZM50.5482 20.9388C49.2982 22.6889 47.2489 24.1532 44.2877 25.2748L44.9962 27.1452C48.195 25.9335 50.6258 24.2711 52.1757 22.1012L50.5482 20.9388ZM44.2956 25.2719C41.4191 26.334 37.5863 26.8661 32.7515 26.82L32.7324 28.82C37.6976 28.8672 41.7982 28.326 44.9883 27.1481L44.2956 25.2719ZM33.742 27.82V26.35H31.742V27.82H33.742ZM32.7827 27.3492C37.2908 27.1652 41.1077 27.4897 44.2529 28.2985L44.751 26.3615C41.3628 25.4903 37.3398 25.1615 32.7012 25.3508L32.7827 27.3492ZM44.2529 28.2985C47.3873 29.1045 49.6895 30.4012 51.2496 32.13L52.7343 30.79C50.8411 28.6921 48.15 27.2355 44.751 26.3615L44.2529 28.2985ZM51.2585 32.1398C52.8384 33.8444 53.652 36.0176 53.652 38.74H55.652C55.652 35.5824 54.6922 32.9023 52.7254 30.7802L51.2585 32.1398ZM53.652 38.74C53.652 41.6767 52.709 44.2749 50.8025 46.5712L52.3414 47.8488C54.5416 45.1985 55.652 42.1499 55.652 38.74H53.652ZM50.8025 46.5712C48.8929 48.8715 46.0755 50.7212 42.2756 52.0783L42.9483 53.9617C46.9885 52.5188 50.1444 50.4951 52.3414 47.8488L50.8025 46.5712ZM42.272 52.0795C38.5399 53.4285 33.9027 54.12 28.332 54.12V56.12C34.0545 56.12 38.9374 55.4115 42.9519 53.9605L42.272 52.0795ZM28.332 54.12C22.9602 54.12 18.3219 53.3851 14.3972 51.9415L13.7067 53.8185C17.902 55.3616 22.7837 56.12 28.332 56.12V54.12ZM14.3972 51.9415C10.468 50.4963 7.45406 48.4633 5.30124 45.8711L3.76266 47.1489C6.18318 50.0634 9.51593 52.2771 13.7067 53.8185L14.3972 51.9415ZM5.31282 45.8853C3.21253 43.2599 2.09358 40.2014 1.96125 36.6725L-0.0373445 36.7475C0.110324 40.6853 1.37138 44.1601 3.75108 47.1347L5.31282 45.8853ZM0.961953 37.71H15.382V35.71H0.961953V37.71ZM14.3945 36.868C14.815 39.4958 16.2025 41.5431 18.4989 42.9523L19.545 41.2477C17.7347 40.1369 16.6956 38.5908 16.3694 36.552L14.3945 36.868ZM18.5075 42.9575C20.8353 44.3542 24.1529 44.99 28.332 44.99V42.99C24.2977 42.99 21.4086 42.3658 19.5364 41.2425L18.5075 42.9575ZM28.332 44.99C32.1382 44.99 35.1884 44.4238 37.3681 43.1782L36.3758 41.4418C34.6355 42.4362 31.9924 42.99 28.332 42.99V44.99ZM37.3593 43.1832C39.6271 41.9175 40.882 40.0484 40.882 37.62H38.882C38.882 39.2049 38.1302 40.4625 36.3846 41.4368L37.3593 43.1832ZM40.882 37.62C40.882 36.2546 40.4945 35.0407 39.6739 34.0443L38.13 35.3157C38.6161 35.906 38.882 36.6521 38.882 37.62H40.882ZM39.6963 34.0725C38.8844 33.0108 37.5207 32.3518 35.841 31.9566L35.3829 33.9034C36.8766 34.2549 37.7062 34.7625 38.1076 35.2874L39.6963 34.0725ZM35.8678 31.9633C34.1584 31.5108 31.8417 31.3 28.962 31.3V33.3C31.7755 33.3 33.8922 33.5092 35.3561 33.8967L35.8678 31.9633ZM28.962 31.3H19.932V33.3H28.962V31.3ZM20.932 32.3V22.5H18.932V32.3H20.932ZM19.932 23.5H28.962V21.5H19.932V23.5ZM28.962 23.5C32.6698 23.5 35.5073 23.0201 37.2228 21.8579L36.1011 20.2021C34.9233 20.9999 32.6275 21.5 28.962 21.5V23.5ZM37.2106 21.866C38.9544 20.7217 39.902 19.116 39.902 17.11H37.902C37.902 18.3707 37.3562 19.3783 36.1133 20.194L37.2106 21.866ZM39.902 17.11C39.902 14.9275 38.7999 13.2423 36.8056 12.1103L35.8184 13.8497C37.2773 14.6777 37.902 15.7458 37.902 17.11H39.902ZM36.8158 12.1162C34.907 11.0027 32.1501 10.51 28.682 10.51V12.51C32.0272 12.51 34.3569 12.9972 35.8081 13.8438L36.8158 12.1162ZM28.682 10.51C24.9543 10.51 21.9404 11.1272 19.7556 12.4797L20.8083 14.1803C22.5435 13.1061 25.1296 12.51 28.682 12.51V10.51ZM19.7556 12.4797C17.5617 13.8379 16.2196 15.7846 15.7961 18.2722L17.7678 18.6078C18.091 16.7088 19.0822 15.2488 20.8083 14.1803L19.7556 12.4797ZM16.782 17.44H2.29195V19.44H16.782V17.44ZM89.5059 53.02L89.1239 53.9442L89.1313 53.9472L89.1388 53.9502L89.5059 53.02ZM80.8959 47L80.1425 47.6575L80.8959 47ZM76.6959 38.11V37.11H75.5155L75.7095 38.2744L76.6959 38.11ZM90.3459 38.11L91.3026 37.8188L91.0869 37.11H90.3459V38.11ZM94.2659 43.36L93.6977 44.1829L93.7089 44.1906L93.7203 44.198L94.2659 43.36ZM107.286 43.99L106.829 43.1004L106.819 43.1056L107.286 43.99ZM111.276 40.14L112.15 40.6256L111.276 40.14ZM111.276 27.89L112.15 27.4044L111.276 27.89ZM107.286 24.04L106.819 24.9244L106.829 24.9296L107.286 24.04ZM94.2659 24.74L94.8116 25.578L94.8184 25.5736L94.8251 25.5691L94.2659 24.74ZM90.3459 29.92V30.92H91.1025L91.3083 30.192L90.3459 29.92ZM76.6959 29.92L75.7092 29.7578L75.5181 30.92H76.6959V29.92ZM80.8959 21.03L81.6434 21.6944L81.6494 21.6875L80.8959 21.03ZM89.5059 15.01L89.1283 14.0841L89.1239 14.0858L89.5059 15.01ZM114.426 15.57L113.992 16.471L114.001 16.4753L114.426 15.57ZM123.246 22.99L122.412 23.5419L123.246 22.99ZM123.246 45.04L122.412 44.4881L123.246 45.04ZM114.426 52.46L114.851 53.3653L114.426 52.46ZM119.046 37.9V38.9H120.046V37.9H119.046ZM95.6659 37.9H94.6659V38.9H95.6659V37.9ZM95.6659 30.13V29.13H94.6659V30.13H95.6659ZM119.046 30.13H120.046V29.13H119.046V30.13ZM101.336 54.12C97.1044 54.12 93.2878 53.4378 89.8731 52.0898L89.1388 53.9502C92.8174 55.4022 96.8875 56.12 101.336 56.12V54.12ZM89.8879 52.0958C86.5145 50.7015 83.7769 48.7803 81.6494 46.3425L80.1425 47.6575C82.495 50.3531 85.4973 52.4452 89.1239 53.9442L89.8879 52.0958ZM81.6494 46.3425C79.5312 43.9154 78.2119 41.1228 77.6823 37.9456L75.7095 38.2744C76.3 41.8172 77.7807 44.9513 80.1425 47.6575L81.6494 46.3425ZM76.6959 39.11H90.3459V37.11H76.6959V39.11ZM89.3893 38.4012C90.1126 40.7777 91.5642 42.7097 93.6977 44.1829L94.8341 42.5371C93.0477 41.3036 91.886 39.7356 91.3026 37.8188L89.3893 38.4012ZM93.7203 44.198C95.907 45.6219 98.4344 46.32 101.266 46.32V44.32C98.7774 44.32 96.6382 43.7114 94.8116 42.522L93.7203 44.198ZM101.266 46.32C103.725 46.32 105.9 45.8524 107.753 44.8744L106.819 43.1056C105.312 43.9009 103.473 44.32 101.266 44.32V46.32ZM107.743 44.8796C109.644 43.9035 111.12 42.4804 112.15 40.6256L110.402 39.6544C109.566 41.1596 108.382 42.3032 106.829 43.1004L107.743 44.8796ZM112.15 40.6256C113.183 38.7656 113.676 36.5599 113.676 34.05H111.676C111.676 36.3001 111.235 38.1544 110.402 39.6544L112.15 40.6256ZM113.676 34.05C113.676 31.4972 113.185 29.267 112.15 27.4044L110.402 28.3756C111.234 29.873 111.676 31.7495 111.676 34.05H113.676ZM112.15 27.4044C111.12 25.5496 109.644 24.1265 107.743 23.1504L106.829 24.9296C108.382 25.7268 109.566 26.8704 110.402 28.3756L112.15 27.4044ZM107.753 23.1556C105.9 22.1776 103.725 21.71 101.266 21.71V23.71C103.473 23.71 105.312 24.1291 106.819 24.9244L107.753 23.1556ZM101.266 21.71C98.4273 21.71 95.8949 22.4352 93.7068 23.9109L94.8251 25.5691C96.6503 24.3381 98.7846 23.71 101.266 23.71V21.71ZM93.7203 23.902C91.527 25.3302 90.0612 27.2506 89.3836 29.648L91.3083 30.192C91.844 28.2961 92.9916 26.7631 94.8116 25.578L93.7203 23.902ZM90.3459 28.92H76.6959V30.92H90.3459V28.92ZM77.6827 30.0822C78.2128 26.8575 79.5322 24.0695 81.6433 21.6944L80.1485 20.3656C77.7797 23.0305 76.2991 26.1692 75.7092 29.7578L77.6827 30.0822ZM81.6494 21.6875C83.7769 19.2497 86.5145 17.3285 89.8879 15.9342L89.1239 14.0858C85.4973 15.5848 82.495 17.6769 80.1425 20.3725L81.6494 21.6875ZM89.8836 15.9359C93.2955 14.5443 97.1083 13.84 101.336 13.84V11.84C96.8836 11.84 92.8097 12.5824 89.1283 14.0841L89.8836 15.9359ZM101.336 13.84C106.159 13.84 110.37 14.7268 113.992 16.471L114.86 14.669C110.922 12.7732 106.406 11.84 101.336 11.84V13.84ZM114.001 16.4753C117.632 18.1785 120.423 20.5364 122.412 23.5419L124.08 22.4381C121.869 19.0969 118.78 16.5082 114.851 14.6647L114.001 16.4753ZM122.412 23.5419C124.393 26.5347 125.396 30.0251 125.396 34.05H127.396C127.396 29.6749 126.299 25.7919 124.08 22.4381L122.412 23.5419ZM125.396 34.05C125.396 38.0258 124.394 41.4934 122.412 44.4881L124.08 45.5919C126.298 42.2399 127.396 38.3809 127.396 34.05H125.396ZM122.412 44.4881C120.423 47.4936 117.632 49.8515 114.001 51.5547L114.851 53.3653C118.78 51.5218 121.869 48.9331 124.08 45.5919L122.412 44.4881ZM114.001 51.5547C110.376 53.2552 106.163 54.12 101.336 54.12V56.12C106.403 56.12 110.915 55.2115 114.851 53.3653L114.001 51.5547ZM119.046 36.9H95.6659V38.9H119.046V36.9ZM96.6659 37.9V30.13H94.6659V37.9H96.6659ZM95.6659 31.13H119.046V29.13H95.6659V31.13ZM118.046 30.13V37.9H120.046V30.13H118.046ZM143.346 18.93V17.93H142.346V18.93H143.346ZM157.696 18.93H158.696V17.93H157.696V18.93ZM157.696 54V55H158.696V54H157.696ZM143.346 54H142.346V55H143.346V54ZM128.156 14.03V13.03H127.156V14.03H128.156ZM172.886 14.03H173.886V13.03H172.886V14.03ZM172.886 24.81V25.81H173.886V24.81H172.886ZM128.156 24.81H127.156V25.81H128.156V24.81ZM143.346 19.93H157.696V17.93H143.346V19.93ZM156.696 18.93V54H158.696V18.93H156.696ZM157.696 53H143.346V55H157.696V53ZM144.346 54V18.93H142.346V54H144.346ZM128.156 15.03H172.886V13.03H128.156V15.03ZM171.886 14.03V24.81H173.886V14.03H171.886ZM172.886 23.81H128.156V25.81H172.886V23.81ZM129.156 24.81V14.03H127.156V24.81H129.156ZM212.675 54L211.683 54.1252L211.793 55H212.675V54ZM210.855 39.58L209.909 39.2566L209.834 39.4756L209.863 39.7052L210.855 39.58ZM212.745 34.05L213.691 34.3734L213.802 34.05L213.691 33.7266L212.745 34.05ZM210.855 28.52L209.863 28.3954L209.834 28.6247L209.909 28.8434L210.855 28.52ZM212.675 14.03V13.03H211.793L211.683 13.9054L212.675 14.03ZM227.515 14.03L228.507 14.1553L228.649 13.03H227.515V14.03ZM224.995 33.98L224.003 33.8547L223.987 33.9798L224.003 34.1049L224.995 33.98ZM227.515 54V55H228.649L228.507 53.8751L227.515 54ZM216.035 34.05L217.023 34.2037L217.046 34.0578L217.025 33.9116L216.035 34.05ZM212.115 45.11L211.264 44.5845L211.258 44.5937L212.115 45.11ZM204.765 52.53L205.271 53.3923L205.275 53.3899L204.765 52.53ZM184.325 52.53L183.808 53.3863L183.816 53.3911L183.824 53.3957L184.325 52.53ZM177.395 45.11L176.508 45.5726L176.511 45.5779L177.395 45.11ZM177.395 22.92L176.511 22.4521L177.395 22.92ZM184.325 15.5L183.814 14.6401L183.808 14.6437L184.325 15.5ZM204.765 15.5L204.248 16.3563L204.256 16.3611L204.264 16.3657L204.765 15.5ZM212.185 22.85L211.334 23.3755L211.337 23.3811L212.185 22.85ZM190.555 39.3L189.666 39.758L189.671 39.7685L189.677 39.7789L190.555 39.3ZM193.985 42.94L193.462 43.7926L193.472 43.7988L193.483 43.8048L193.985 42.94ZM204.485 42.94L204.922 43.8392L204.932 43.8345L204.942 43.8296L204.485 42.94ZM209.035 39.3L209.797 39.947L209.035 39.3ZM211.975 34.05L212.923 34.3662L213.028 34.0537L212.926 33.7404L211.975 34.05ZM209.035 28.73L209.797 28.083L209.035 28.73ZM193.985 25.09L193.462 24.2374L193.985 25.09ZM190.555 28.73L189.677 28.2511L189.671 28.2615L189.666 28.272L190.555 28.73ZM213.667 53.8748L211.847 39.4548L209.863 39.7052L211.683 54.1252L213.667 53.8748ZM211.801 39.9034L213.691 34.3734L211.799 33.7266L209.909 39.2566L211.801 39.9034ZM213.691 33.7266L211.801 28.1966L209.909 28.8434L211.799 34.3734L213.691 33.7266ZM211.847 28.6446L213.667 14.1546L211.683 13.9054L209.863 28.3954L211.847 28.6446ZM212.675 15.03H227.515V13.03H212.675V15.03ZM226.523 13.9047L224.003 33.8547L225.987 34.1053L228.507 14.1553L226.523 13.9047ZM224.003 34.1049L226.523 54.1249L228.507 53.8751L225.987 33.8551L224.003 34.1049ZM227.515 53H212.675V55H227.515V53ZM215.047 33.8963C214.411 37.9827 213.145 41.5395 211.264 44.5845L212.966 45.6355C215.005 42.3339 216.352 38.5172 217.023 34.2037L215.047 33.8963ZM211.258 44.5937C209.424 47.6354 207.09 49.9866 204.254 51.6701L205.275 53.3899C208.413 51.5267 210.978 48.9312 212.971 45.6263L211.258 44.5937ZM204.258 51.6677C201.488 53.2947 198.307 54.12 194.685 54.12V56.12C198.623 56.12 202.161 55.2187 205.271 53.3923L204.258 51.6677ZM194.685 54.12C190.916 54.12 187.64 53.2915 184.825 51.6643L183.824 53.3957C186.983 55.2218 190.613 56.12 194.685 56.12V54.12ZM184.841 51.6737C182.064 49.9985 179.878 47.6627 178.279 44.6421L176.511 45.5779C178.272 48.9039 180.706 51.5148 183.808 53.3863L184.841 51.6737ZM178.281 44.6474C176.686 41.5896 175.875 38.0656 175.875 34.05H173.875C173.875 38.3411 174.744 42.1904 176.508 45.5726L178.281 44.6474ZM175.875 34.05C175.875 29.9367 176.688 26.3929 178.279 23.3879L176.511 22.4521C174.742 25.7938 173.875 29.67 173.875 34.05H175.875ZM178.279 23.3879C179.878 20.3673 182.064 18.0315 184.841 16.3563L183.808 14.6437C180.706 16.5152 178.272 19.1261 176.511 22.4521L178.279 23.3879ZM184.835 16.3599C187.648 14.6896 190.921 13.84 194.685 13.84V11.84C190.609 11.84 186.975 12.7637 183.814 14.6401L184.835 16.3599ZM194.685 13.84C198.302 13.84 201.48 14.6863 204.248 16.3563L205.281 14.6437C202.17 12.767 198.628 11.84 194.685 11.84V13.84ZM204.264 16.3657C207.096 18.0031 209.454 20.3311 211.334 23.3755L213.036 22.3245C210.996 19.0223 208.406 16.4503 205.265 14.6343L204.264 16.3657ZM211.337 23.3811C213.21 26.3682 214.454 29.9622 215.044 34.1884L217.025 33.9116C216.403 29.4578 215.08 25.5851 213.032 22.3189L211.337 23.3811ZM188.365 34.05C188.365 36.1482 188.79 38.0587 189.666 39.758L191.444 38.842C190.732 37.4613 190.365 35.8718 190.365 34.05H188.365ZM189.677 39.7789C190.598 41.4669 191.861 42.8114 193.462 43.7926L194.507 42.0874C193.215 41.2953 192.192 40.2131 191.433 38.8211L189.677 39.7789ZM193.483 43.8048C195.099 44.7433 196.933 45.2 198.955 45.2V43.2C197.244 43.2 195.764 42.8167 194.487 42.0752L193.483 43.8048ZM198.955 45.2C201.063 45.2 203.056 44.747 204.922 43.8392L204.047 42.0408C202.46 42.813 200.766 43.2 198.955 43.2V45.2ZM204.942 43.8296C206.79 42.8805 208.409 41.583 209.797 39.947L208.272 38.653C207.047 40.097 205.633 41.2262 204.028 42.0504L204.942 43.8296ZM209.797 39.947C211.188 38.3074 212.231 36.4445 212.923 34.3662L211.026 33.7338C210.412 35.5755 209.494 37.2126 208.272 38.653L209.797 39.947ZM212.926 33.7404C212.234 31.6158 211.192 29.7266 209.797 28.083L208.272 29.377C209.491 30.8134 210.409 32.4709 211.024 34.3596L212.926 33.7404ZM209.797 28.083C208.409 26.447 206.79 25.1495 204.942 24.2004L204.028 25.9796C205.633 26.8038 207.047 27.933 208.272 29.377L209.797 28.083ZM204.942 24.2004C203.072 23.2405 201.072 22.76 198.955 22.76V24.76C200.758 24.76 202.444 25.1662 204.028 25.9796L204.942 24.2004ZM198.955 22.76C196.923 22.76 195.082 23.2448 193.462 24.2374L194.507 25.9426C195.781 25.1618 197.253 24.76 198.955 24.76V22.76ZM193.462 24.2374C191.861 25.2186 190.598 26.5631 189.677 28.2511L191.433 29.2089C192.192 27.8169 193.215 26.7347 194.507 25.9426L193.462 24.2374ZM189.666 28.272C188.789 29.9746 188.365 31.9093 188.365 34.05H190.365C190.365 32.1774 190.734 30.5654 191.444 29.188L189.666 28.272ZM281.567 14.03H282.567V13.03H281.567V14.03ZM281.567 54V55H282.567V54H281.567ZM267.217 54H266.217V55H267.217V54ZM267.217 18.16L267.92 17.4491L266.217 15.7639V18.16H267.217ZM273.797 24.67V25.67H276.229L274.5 23.9591L273.797 24.67ZM242.157 24.67L241.453 23.9591L239.724 25.67H242.157V24.67ZM248.737 18.16H249.737V15.7639L248.033 17.4491L248.737 18.16ZM248.737 54V55H249.737V54H248.737ZM234.387 54H233.387V55H234.387V54ZM234.387 14.03V13.03H233.387V14.03H234.387ZM280.567 14.03V54H282.567V14.03H280.567ZM281.567 53H267.217V55H281.567V53ZM268.217 54V18.16H266.217V54H268.217ZM266.513 18.8709L273.093 25.3809L274.5 23.9591L267.92 17.4491L266.513 18.8709ZM273.797 23.67H242.157V25.67H273.797V23.67ZM242.86 25.3809L249.44 18.8709L248.033 17.4491L241.453 23.9591L242.86 25.3809ZM247.737 18.16V54H249.737V18.16H247.737ZM248.737 53H234.387V55H248.737V53ZM235.387 54V14.03H233.387V54H235.387ZM234.387 15.03H281.567V13.03H234.387V15.03Z" fill="black"/>
</svg>
