<svg width="64" height="64" viewBox="0 0 64 64" fill="none" xmlns="http://www.w3.org/2000/svg">
<path d="M51 57H13C9.686 57 7 54.314 7 51V13C7 9.686 9.686 7 13 7H51C54.314 7 57 9.686 57 13V51C57 54.314 54.314 57 51 57Z" fill="#C2CDE7"/>
<path d="M14 7H50C52.209 7 57 7.791 57 10C57 11.657 55.657 13 54 13H10C8.343 13 7 11.657 7 10C7 7.791 11.791 7 14 7Z" fill="#C2CDE7"/>
<path d="M23 41H14V47H23V41Z" fill="#FAEFDE"/>
<path d="M23 48H14C13.448 48 13 47.552 13 47V41C13 40.448 13.448 40 14 40H23C23.552 40 24 40.448 24 41V47C24 47.552 23.552 48 23 48ZM15 46H22V42H15V46Z" fill="black"/>
<path d="M32 34H23V47H32V34Z" fill="#FAEFDE"/>
<path d="M32 48H23C22.448 48 22 47.552 22 47V34C22 33.448 22.448 33 23 33H32C32.552 33 33 33.448 33 34V47C33 47.552 32.552 48 32 48ZM24 46H31V35H24V46Z" fill="black"/>
<path d="M50 28H41V47H50V28Z" fill="#FAEFDE"/>
<path d="M50 48H41C40.448 48 40 47.552 40 47V28C40 27.448 40.448 27 41 27H50C50.552 27 51 27.448 51 28V47C51 47.552 50.552 48 50 48ZM42 46H49V29H42V46Z" fill="black"/>
<path d="M41 20H32V47H41V20Z" fill="#FAEFDE"/>
<path d="M41 48H32C31.448 48 31 47.552 31 47V20C31 19.448 31.448 19 32 19H41C41.552 19 42 19.448 42 20V47C42 47.552 41.552 48 41 48ZM33 46H40V21H33V46Z" fill="black"/>
<path d="M51 58H13C9.14 58 6 54.86 6 51V13C6 9.14 9.14 6 13 6H51C54.86 6 58 9.14 58 13V51C58 54.86 54.86 58 51 58ZM13 8C10.243 8 8 10.243 8 13V51C8 53.757 10.243 56 13 56H51C53.757 56 56 53.757 56 51V13C56 10.243 53.757 8 51 8H13Z" fill="black"/>
</svg>
