<svg width="64" height="64" viewBox="0 0 64 64" fill="none" xmlns="http://www.w3.org/2000/svg">
<g clip-path="url(#clip0_0_452)">
<path d="M45 42.2199V39.7799C45.0067 39.5515 44.9349 39.3277 44.7966 39.1457C44.6583 38.9638 44.4619 38.8347 44.24 38.7799L39.15 37.5099C38.9765 37.4654 38.8181 37.3751 38.6915 37.2484C38.5648 37.1218 38.4745 36.9634 38.43 36.7899C38.0759 35.4645 37.5515 34.1906 36.87 32.9999C36.7822 32.8479 36.736 32.6755 36.736 32.4999C36.736 32.3244 36.7822 32.1519 36.87 31.9999L39.57 27.4899C39.6844 27.2989 39.7317 27.0752 39.7046 26.8542C39.6774 26.6332 39.5773 26.4276 39.42 26.2699L37.7 24.5499C37.5424 24.3927 37.3368 24.2925 37.1158 24.2653C36.8948 24.2382 36.671 24.2855 36.48 24.3999L32 27.1299C31.848 27.2177 31.6755 27.2639 31.5 27.2639C31.3245 27.2639 31.152 27.2177 31 27.1299C29.813 26.4457 28.5424 25.918 27.22 25.5599C27.0465 25.5154 26.8882 25.4251 26.7615 25.2984C26.6348 25.1718 26.5445 25.0134 26.5 24.8399L25.23 19.7499C25.1752 19.5281 25.0462 19.3316 24.8642 19.1933C24.6823 19.0551 24.4584 18.9833 24.23 18.9899H21.78C21.5516 18.9833 21.3277 19.0551 21.1458 19.1933C20.9638 19.3316 20.8347 19.5281 20.78 19.7499L19.51 24.8399C19.4655 25.0134 19.3752 25.1718 19.2485 25.2984C19.1218 25.4251 18.9635 25.5154 18.79 25.5599C17.4641 25.9171 16.1901 26.4448 15 27.1299C14.848 27.2177 14.6755 27.2639 14.5 27.2639C14.3245 27.2639 14.152 27.2177 14 27.1299L9.49 24.4299C9.29897 24.3155 9.07522 24.2682 8.85423 24.2953C8.63323 24.3225 8.42763 24.4227 8.27 24.5799L6.58 26.3099C6.42274 26.4676 6.32259 26.6732 6.29542 26.8942C6.26825 27.1152 6.31561 27.3389 6.43 27.5299L9.13 31.9999C9.21777 32.1519 9.26397 32.3244 9.26397 32.4999C9.26397 32.6755 9.21777 32.8479 9.13 32.9999C8.44579 34.1869 7.91808 35.4575 7.56 36.7799C7.51547 36.9534 7.42516 37.1118 7.2985 37.2384C7.17184 37.3651 7.01349 37.4554 6.84 37.4999L1.76 38.8099C1.53812 38.8647 1.34169 38.9938 1.20341 39.1757C1.06513 39.3577 0.993342 39.5815 0.999997 39.8099V42.2499C0.993342 42.4784 1.06513 42.7022 1.20341 42.8841C1.34169 43.0661 1.53812 43.1952 1.76 43.2499L6.85 44.5199C7.02349 44.5645 7.18184 44.6548 7.3085 44.7814C7.43515 44.9081 7.52547 45.0664 7.57 45.2399C7.92654 46.555 8.45084 47.8187 9.13 48.9999C9.21777 49.1519 9.26397 49.3244 9.26397 49.4999C9.26397 49.6755 9.21777 49.8479 9.13 49.9999L6.43 54.5099C6.31561 54.701 6.26825 54.9247 6.29542 55.1457C6.32259 55.3667 6.42274 55.5723 6.58 55.7299L8.3 57.4499C8.45763 57.6072 8.66323 57.7073 8.88423 57.7345C9.10522 57.7617 9.32897 57.7143 9.52 57.5999L14 54.8699C14.152 54.7822 14.3245 54.736 14.5 54.736C14.6755 54.736 14.848 54.7822 15 54.8699C16.187 55.5541 17.4575 56.0818 18.78 56.4399C18.9535 56.4845 19.1118 56.5748 19.2385 56.7014C19.3652 56.8281 19.4555 56.9864 19.5 57.1599L20.77 62.2499C20.8247 62.4718 20.9538 62.6682 21.1358 62.8065C21.3177 62.9448 21.5416 63.0166 21.77 63.0099H24.21C24.4384 63.0166 24.6623 62.9448 24.8442 62.8065C25.0262 62.6682 25.1552 62.4718 25.21 62.2499L26.48 57.1599C26.5245 56.9864 26.6148 56.8281 26.7415 56.7014C26.8682 56.5748 27.0265 56.4845 27.2 56.4399C28.5293 56.0835 29.8067 55.5557 31 54.8699C31.152 54.7822 31.3245 54.736 31.5 54.736C31.6755 54.736 31.848 54.7822 32 54.8699L36.51 57.5699C36.701 57.6843 36.9248 57.7317 37.1458 57.7045C37.3668 57.6773 37.5724 57.5772 37.73 57.4199L39.45 55.6999C39.6073 55.5423 39.7074 55.3367 39.7346 55.1157C39.7617 54.8947 39.7144 54.671 39.6 54.4799L36.87 49.9999C36.7822 49.8479 36.736 49.6755 36.736 49.4999C36.736 49.3244 36.7822 49.1519 36.87 48.9999C37.5542 47.8129 38.0819 46.5424 38.44 45.2199C38.4845 45.0464 38.5748 44.8881 38.7015 44.7614C38.8282 44.6348 38.9865 44.5445 39.16 44.4999L44.25 43.2299C44.4717 43.1729 44.6672 43.0415 44.8037 42.8576C44.9402 42.6738 45.0095 42.4487 45 42.2199Z" fill="#C2CDE7"/>
<path d="M23 30C20.0826 30 17.2847 31.1589 15.2218 33.2218C13.1589 35.2847 12 38.0826 12 41C12 43.9174 13.1589 46.7153 15.2218 48.7782C17.2847 50.8411 20.0826 52 23 52C25.9174 52 28.7153 50.8411 30.7782 48.7782C32.8411 46.7153 34 43.9174 34 41C34 38.0826 32.8411 35.2847 30.7782 33.2218C28.7153 31.1589 25.9174 30 23 30Z" fill="#ACB7D0"/>
<path d="M62.36 10.6799L61.61 8.82989L57.43 9.61989C56.6838 8.44508 55.6992 7.44006 54.54 6.66989L55.4 2.49989L53.56 1.71989L51.16 5.22989C49.791 4.92658 48.3732 4.91636 47 5.19989L44.68 1.63989L42.83 2.38989L43.62 6.56989C42.4452 7.31608 41.4402 8.30066 40.67 9.45989L36.5 8.60989L35.72 10.4499L39.23 12.8499C38.9408 14.2114 38.9408 15.6184 39.23 16.9799L35.67 19.3199L36.42 21.1699L40.6 20.3799C41.3462 21.5547 42.3308 22.5597 43.49 23.3299L42.63 27.4999L44.47 28.2799L46.87 24.7699C48.2315 25.059 49.6385 25.059 51 24.7699L53.34 28.3299L55.19 27.5799L54.4 23.3999C55.5748 22.6537 56.5798 21.6691 57.35 20.5099L61.52 21.3699L62.3 19.5299L58.79 17.1299C59.0791 15.7684 59.0791 14.3614 58.79 12.9999L62.36 10.6799Z" fill="#C2CDE7"/>
<path d="M49 10C47.6739 10 46.4021 10.5268 45.4645 11.4645C44.5268 12.4021 44 13.6739 44 15C44 16.3261 44.5268 17.5979 45.4645 18.5355C46.4021 19.4732 47.6739 20 49 20C50.3261 20 51.5979 19.4732 52.5355 18.5355C53.4732 17.5979 54 16.3261 54 15C54 13.6739 53.4732 12.4021 52.5355 11.4645C51.5979 10.5268 50.3261 10 49 10ZM23 35C21.4087 35 19.8826 35.6321 18.7574 36.7574C17.6321 37.8826 17 39.4087 17 41C17 42.5913 17.6321 44.1174 18.7574 45.2426C19.8826 46.3679 21.4087 47 23 47C24.5913 47 26.1174 46.3679 27.2426 45.2426C28.3679 44.1174 29 42.5913 29 41C29 39.4087 28.3679 37.8826 27.2426 36.7574C26.1174 35.6321 24.5913 35 23 35Z" fill="#FAEFDE"/>
<path d="M30.8 31.7599C30.5918 31.5955 30.3268 31.5205 30.0633 31.5514C29.7998 31.5824 29.5594 31.7167 29.395 31.9249C29.2306 32.1331 29.1556 32.3981 29.1865 32.6616C29.2175 32.9251 29.3518 33.1655 29.56 33.3299C30.0807 33.7418 30.5627 34.2004 31 34.6999C31.1785 34.8858 31.4218 34.9955 31.6793 35.0063C31.9367 35.0171 32.1884 34.9281 32.3818 34.7579C32.5753 34.5877 32.6955 34.3494 32.7175 34.0926C32.7396 33.8359 32.6616 33.5806 32.5 33.3799C31.9838 32.7894 31.4147 32.2471 30.8 31.7599ZM19 31.6299C19.1087 31.6308 19.2168 31.6139 19.32 31.5799C21.5628 30.8334 23.9872 30.8334 26.23 31.5799C26.3548 31.6213 26.4864 31.6377 26.6175 31.6282C26.7486 31.6186 26.8765 31.5834 26.994 31.5244C27.1115 31.4655 27.2162 31.3839 27.3021 31.2845C27.3881 31.1851 27.4536 31.0697 27.495 30.9449C27.5364 30.8202 27.5528 30.6885 27.5432 30.5574C27.5337 30.4263 27.4985 30.2984 27.4395 30.1809C27.3805 30.0634 27.299 29.9587 27.1996 29.8728C27.1001 29.7868 26.9848 29.7213 26.86 29.6799C24.2044 28.7997 21.3356 28.7997 18.68 29.6799C18.4534 29.7544 18.2609 29.9073 18.1372 30.1112C18.0135 30.3151 17.9667 30.5565 18.0054 30.7919C18.044 31.0272 18.1654 31.241 18.3478 31.3947C18.5302 31.5484 18.7615 31.6318 19 31.6299ZM15.07 47.1999L13.78 48.4899C13.6874 48.5832 13.6141 48.6937 13.5643 48.8153C13.5144 48.9369 13.489 49.0671 13.4894 49.1985C13.4899 49.3299 13.5162 49.4599 13.567 49.5811C13.6177 49.7023 13.6918 49.8123 13.785 49.9049C13.8782 49.9975 13.9888 50.0708 14.1104 50.1207C14.2319 50.1705 14.3621 50.1959 14.4935 50.1955C14.6249 50.195 14.7549 50.1687 14.8762 50.118C14.9974 50.0673 15.1074 49.9932 15.2 49.8999L16.49 48.6099C16.6538 48.4186 16.7394 48.1726 16.7297 47.9209C16.72 47.6692 16.6157 47.4305 16.4376 47.2524C16.2595 47.0743 16.0207 46.9699 15.7691 46.9602C15.5174 46.9505 15.2713 47.0361 15.08 47.1999H15.07ZM14.56 44.3499C14.4564 44.1061 14.2603 43.9133 14.0147 43.8139C13.769 43.7145 13.494 43.7167 13.25 43.8199L11.58 44.5299C11.4541 44.5776 11.3392 44.6502 11.2421 44.7434C11.145 44.8365 11.0677 44.9483 11.0148 45.0721C10.9619 45.1959 10.9345 45.329 10.9343 45.4636C10.9341 45.5982 10.9611 45.7314 11.0137 45.8553C11.0662 45.9792 11.1432 46.0913 11.24 46.1847C11.3369 46.2782 11.4516 46.3511 11.5773 46.3991C11.703 46.4472 11.8372 46.4694 11.9716 46.4643C12.1061 46.4593 12.2382 46.4272 12.36 46.3699L14 45.6599C14.1234 45.6115 14.236 45.539 14.3311 45.4467C14.4262 45.3543 14.5021 45.244 14.5542 45.1221C14.6063 45.0002 14.6336 44.8692 14.6346 44.7366C14.6356 44.604 14.6103 44.4726 14.56 44.3499ZM11 41.9999H12.82C13.0852 41.9999 13.3396 41.8946 13.5271 41.707C13.7146 41.5195 13.82 41.2651 13.82 40.9999C13.82 40.7347 13.7146 40.4804 13.5271 40.2928C13.3396 40.1053 13.0852 39.9999 12.82 39.9999H11C10.7348 39.9999 10.4804 40.1053 10.2929 40.2928C10.1054 40.4804 10 40.7347 10 40.9999C10 41.2651 10.1054 41.5195 10.2929 41.707C10.4804 41.8946 10.7348 41.9999 11 41.9999ZM11.45 37.5199L13.15 38.1699C13.2728 38.2172 13.4037 38.2398 13.5352 38.2365C13.6667 38.2332 13.7963 38.204 13.9166 38.1506C14.0368 38.0972 14.1454 38.0207 14.2361 37.9253C14.3267 37.83 14.3977 37.7177 14.445 37.5949C14.4923 37.4721 14.5149 37.3412 14.5116 37.2097C14.5083 37.0782 14.4791 36.9486 14.4257 36.8283C14.3723 36.7081 14.2958 36.5995 14.2004 36.5089C14.1051 36.4182 13.9928 36.3472 13.87 36.2999L12.17 35.6499C11.922 35.5544 11.6463 35.5614 11.4034 35.6692C11.1606 35.7771 10.9705 35.9769 10.875 36.2249C10.7795 36.4729 10.7865 36.7487 10.8943 36.9915C11.0021 37.2344 11.202 37.4244 11.45 37.5199ZM23 33.9999C21.6155 33.9999 20.2622 34.4105 19.111 35.1796C17.9599 35.9488 17.0627 37.0421 16.5328 38.3211C16.003 39.6002 15.8644 41.0077 16.1345 42.3656C16.4046 43.7234 17.0713 44.9707 18.0503 45.9497C19.0292 46.9286 20.2765 47.5953 21.6344 47.8654C22.9922 48.1355 24.3997 47.9969 25.6788 47.4671C26.9579 46.9373 28.0511 46.0401 28.8203 44.8889C29.5895 43.7378 30 42.3844 30 40.9999C30 39.1434 29.2625 37.3629 27.9497 36.0502C26.637 34.7374 24.8565 33.9999 23 33.9999ZM23 45.9999C22.0111 45.9999 21.0444 45.7067 20.2221 45.1573C19.3999 44.6079 18.759 43.827 18.3806 42.9133C18.0022 41.9997 17.9031 40.9944 18.0961 40.0245C18.289 39.0546 18.7652 38.1637 19.4645 37.4644C20.1637 36.7651 21.0546 36.2889 22.0245 36.096C22.9945 35.9031 23.9998 36.0021 24.9134 36.3805C25.827 36.759 26.6079 37.3998 27.1573 38.2221C27.7068 39.0443 28 40.011 28 40.9999C28 42.326 27.4732 43.5978 26.5355 44.5355C25.5979 45.4731 24.3261 45.9999 23 45.9999Z" fill="black"/>
<path d="M23 39C22.4696 39 21.9609 39.2107 21.5858 39.5858C21.2107 39.9609 21 40.4696 21 41C21 41.5304 21.2107 42.0391 21.5858 42.4142C21.9609 42.7893 22.4696 43 23 43C23.5304 43 24.0391 42.7893 24.4142 42.4142C24.7893 42.0391 25 41.5304 25 41C25 40.4696 24.7893 39.9609 24.4142 39.5858C24.0391 39.2107 23.5304 39 23 39ZM49 9C47.8133 9 46.6533 9.35189 45.6666 10.0112C44.6799 10.6705 43.9108 11.6075 43.4567 12.7039C43.0026 13.8003 42.8838 15.0067 43.1153 16.1705C43.3468 17.3344 43.9182 18.4035 44.7574 19.2426C45.5965 20.0818 46.6656 20.6532 47.8295 20.8847C48.9933 21.1162 50.1997 20.9974 51.2961 20.5433C52.3925 20.0892 53.3295 19.3201 53.9888 18.3334C54.6481 17.3467 55 16.1867 55 15C55 13.4087 54.3679 11.8826 53.2426 10.7574C52.1174 9.63214 50.5913 9 49 9ZM49 19.24C48.1614 19.24 47.3416 18.9913 46.6444 18.5254C45.9471 18.0595 45.4037 17.3973 45.0828 16.6226C44.7618 15.8478 44.6779 14.9953 44.8415 14.1728C45.0051 13.3503 45.4089 12.5948 46.0019 12.0019C46.5948 11.4089 47.3503 11.0051 48.1728 10.8415C48.9953 10.6779 49.8478 10.7618 50.6226 11.0828C51.3973 11.4037 52.0595 11.9471 52.5254 12.6444C52.9913 13.3416 53.24 14.1614 53.24 15C53.2374 16.1237 52.7898 17.2006 51.9952 17.9952C51.2006 18.7898 50.1237 19.2374 49 19.24Z" fill="black"/>
<path d="M49 13C48.4696 13 47.9609 13.2107 47.5858 13.5858C47.2107 13.9609 47 14.4696 47 15C47 15.5304 47.2107 16.0391 47.5858 16.4142C47.9609 16.7893 48.4696 17 49 17C49.5304 17 50.0391 16.7893 50.4142 16.4142C50.7893 16.0391 51 15.5304 51 15C51 14.4696 50.7893 13.9609 50.4142 13.5858C50.0391 13.2107 49.5304 13 49 13ZM44.49 37.84L39.4 36.56C39.0182 35.1586 38.4533 33.8137 37.72 32.56L40.43 28C40.6588 27.6179 40.7535 27.1705 40.6992 26.7285C40.6448 26.2865 40.4445 25.8753 40.13 25.56L38.4 23.87C38.0847 23.5555 37.6735 23.3552 37.2315 23.3008C36.7895 23.2465 36.3421 23.3412 35.96 23.57L31.46 26.26C30.2053 25.5335 28.8604 24.9754 27.46 24.6L26.19 19.51C26.0797 19.0732 25.8251 18.6865 25.4676 18.4124C25.11 18.1384 24.6704 17.993 24.22 18H21.78C21.3347 17.9998 20.902 18.1482 20.5506 18.4217C20.1992 18.6953 19.9491 19.0782 19.84 19.51L18.56 24.6C17.1586 24.9818 15.8137 25.5467 14.56 26.28L10 23.57C9.61794 23.3412 9.17045 23.2465 8.72846 23.3008C8.28647 23.3552 7.87526 23.5555 7.56 23.87L5.87 25.6C5.56481 25.9124 5.37027 26.3161 5.3161 26.7495C5.26192 27.1829 5.3511 27.6221 5.57 28L8.26 32.5C7.53354 33.7547 6.97541 35.0996 6.6 36.5L1.51 37.84C1.07825 37.9491 0.695261 38.1992 0.421734 38.5506C0.148206 38.902 -0.000212144 39.3347 2.27593e-07 39.78V42.22C-0.000212144 42.6653 0.148206 43.098 0.421734 43.4494C0.695261 43.8008 1.07825 44.0509 1.51 44.16L6.6 45.44C6.98183 46.8414 7.5467 48.1863 8.28 49.44L5.57 54C5.34122 54.3821 5.2465 54.8295 5.30084 55.2715C5.35519 55.7135 5.55549 56.1247 5.87 56.44L7.6 58.13C7.91526 58.4445 8.32647 58.6448 8.76846 58.6992C9.21045 58.7535 9.65794 58.6588 10.04 58.43L14.54 55.74C15.7947 56.4665 17.1396 57.0246 18.54 57.4L19.81 62.49C19.9203 62.9268 20.1749 63.3135 20.5324 63.5876C20.89 63.8616 21.3296 64.007 21.78 64H24.22C24.6653 64.0002 25.098 63.8518 25.4494 63.5783C25.8008 63.3047 26.0509 62.9218 26.16 62.49L27.44 57.4C28.8414 57.0182 30.1863 56.4533 31.44 55.72L36 58.43C36.3821 58.6588 36.8295 58.7535 37.2715 58.6992C37.7135 58.6448 38.1247 58.4445 38.44 58.13L40.16 56.41C40.4745 56.0947 40.6748 55.6835 40.7292 55.2415C40.7835 54.7995 40.6888 54.3521 40.46 53.97L37.77 49.47C38.4965 48.2153 39.0546 46.8704 39.43 45.47L44.52 44.2C44.9529 44.0836 45.3341 43.8251 45.6025 43.466C45.8709 43.107 46.0109 42.6682 46 42.22V39.78C46.0002 39.3347 45.8518 38.902 45.5783 38.5506C45.3047 38.1992 44.9218 37.9491 44.49 37.84ZM44 42.22L38.91 43.49C38.5642 43.5782 38.2484 43.7573 37.9952 44.0088C37.7419 44.2602 37.5606 44.5749 37.47 44.92C37.1346 46.1584 36.6405 47.3483 36 48.46C35.8245 48.764 35.7321 49.1089 35.7321 49.46C35.7321 49.8111 35.8245 50.156 36 50.46L38.71 55L37 56.71L32.48 54C32.176 53.8245 31.8311 53.7321 31.48 53.7321C31.1289 53.7321 30.784 53.8245 30.48 54C29.3682 54.6403 28.1783 55.1344 26.94 55.47C26.5967 55.5622 26.2842 55.7442 26.0346 55.9973C25.785 56.2504 25.6074 56.5654 25.52 56.91L24.22 62H21.78L20.51 56.91C20.4226 56.5654 20.245 56.2504 19.9954 55.9973C19.7458 55.7442 19.4333 55.5622 19.09 55.47C17.8483 55.1351 16.655 54.641 15.54 54C15.2362 53.8237 14.8913 53.7306 14.54 53.73C14.1878 53.7337 13.8429 53.8302 13.54 54.01L9 56.71L7.29 55L9.99 50.5C10.1655 50.196 10.2579 49.8511 10.2579 49.5C10.2579 49.1489 10.1655 48.804 9.99 48.5C9.34983 47.3881 8.85576 46.1983 8.52 44.96C8.42938 44.6149 8.24805 44.3002 7.99485 44.0488C7.74164 43.7973 7.42577 43.6182 7.08 43.53L2 42.22V39.78L7.09 38.51C7.43456 38.4226 7.74961 38.245 8.00271 37.9954C8.25581 37.7458 8.43782 37.4333 8.53 37.09C8.86494 35.8483 9.35904 34.655 10 33.54C10.1755 33.236 10.2679 32.8911 10.2679 32.54C10.2679 32.1889 10.1755 31.844 10 31.54L7.29 27L9 25.29L13.5 27.99C13.804 28.1655 14.1489 28.2579 14.5 28.2579C14.8511 28.2579 15.196 28.1655 15.5 27.99C16.6119 27.3498 17.8017 26.8558 19.04 26.52C19.3851 26.4294 19.6998 26.2481 19.9512 25.9948C20.2027 25.7416 20.3818 25.4258 20.47 25.08L21.78 20H24.22L25.49 25.09C25.5782 25.4358 25.7573 25.7516 26.0088 26.0048C26.2602 26.2581 26.5749 26.4394 26.92 26.53C28.1584 26.8655 29.3482 27.3596 30.46 28C30.764 28.1755 31.1089 28.268 31.46 28.268C31.8111 28.268 32.156 28.1755 32.46 28L37 25.29L38.71 27L36 31.52C35.8245 31.824 35.7321 32.1689 35.7321 32.52C35.7321 32.8711 35.8245 33.216 36 33.52C36.6403 34.6318 37.1344 35.8217 37.47 37.06C37.5622 37.4033 37.7442 37.7158 37.9973 37.9654C38.2504 38.215 38.5654 38.3926 38.91 38.48L44 39.78V42.22Z" fill="black"/>
<path d="M62.84 18.72L59.84 16.72C59.9985 15.6592 59.9985 14.5808 59.84 13.52L62.84 11.52C63.0335 11.3934 63.1771 11.2036 63.2464 10.983C63.3157 10.7624 63.3063 10.5245 63.22 10.31L62.47 8.46002C62.3838 8.24584 62.2262 8.06808 62.0239 7.95689C61.8216 7.8457 61.587 7.80794 61.36 7.85002L57.82 8.52002C57.1901 7.65351 56.4352 6.88516 55.58 6.24002L56.31 2.71002C56.356 2.48393 56.3223 2.2489 56.2148 2.04478C56.1073 1.84066 55.9325 1.67999 55.72 1.59002L53.94 0.800023C53.7265 0.709144 53.488 0.695364 53.2654 0.761044C53.0428 0.826724 52.85 0.967775 52.72 1.16002L50.72 4.16002C49.6592 4.00157 48.5808 4.00157 47.52 4.16002L45.52 1.16002C45.4024 0.955926 45.2166 0.79988 44.9952 0.719386C44.7739 0.638893 44.5312 0.639118 44.31 0.720023L42.46 1.47002C42.2458 1.55619 42.0681 1.71381 41.9569 1.91614C41.8457 2.11846 41.8079 2.35303 41.85 2.58002L42.52 6.12002C41.6537 6.75015 40.8854 7.50499 40.24 8.36002L36.71 7.63002C36.4839 7.58407 36.2489 7.61771 36.0448 7.72524C35.8406 7.83277 35.68 8.00757 35.59 8.22002L34.81 10.06C34.7191 10.2736 34.7054 10.5121 34.771 10.7346C34.8367 10.9572 34.9778 11.15 35.17 11.28L38.17 13.28C38.0114 14.3408 38.0114 15.4193 38.17 16.48L35.17 18.48C34.9765 18.6067 34.8329 18.7965 34.7637 19.0171C34.6944 19.2377 34.7037 19.4755 34.79 19.69L35.54 21.54C35.6262 21.7542 35.7838 21.932 35.9861 22.0432C36.1885 22.1543 36.423 22.1921 36.65 22.15L40.19 21.48C40.8199 22.3465 41.5748 23.1149 42.43 23.76L41.7 27.29C41.6541 27.5161 41.6877 27.7511 41.7952 27.9553C41.9028 28.1594 42.0776 28.3201 42.29 28.41L44.13 29.19C44.3436 29.2809 44.582 29.2947 44.8046 29.229C45.0272 29.1633 45.22 29.0223 45.35 28.83L47.35 25.83C48.4108 25.9879 49.4892 25.9879 50.55 25.83L52.55 28.83C52.6767 29.0235 52.8664 29.1671 53.0871 29.2364C53.3077 29.3057 53.5455 29.2964 53.76 29.21L55.61 28.46C55.8242 28.3739 56.002 28.2162 56.1131 28.0139C56.2243 27.8116 56.2621 27.577 56.22 27.35L55.55 23.81C56.4165 23.1801 57.1849 22.4252 57.83 21.57L61.36 22.3C61.5861 22.346 61.8211 22.3123 62.0253 22.2048C62.2294 22.0973 62.39 21.9225 62.48 21.71L63.26 19.87C63.3273 19.6589 63.3226 19.4314 63.2466 19.2232C63.1705 19.0151 63.0275 18.8381 62.84 18.72ZM60.9 20.25L57.54 19.55C57.3496 19.5175 57.1538 19.5407 56.9764 19.617C56.7989 19.6933 56.6474 19.8194 56.54 19.98C55.8493 21.0233 54.9463 21.9093 53.89 22.58C53.7276 22.6861 53.5995 22.8371 53.5214 23.0146C53.4433 23.1922 53.4185 23.3886 53.45 23.58L54 27L53.67 27.13L51.78 24.26C51.6954 24.1274 51.5806 24.0166 51.4451 23.9367C51.3095 23.8567 51.157 23.8099 51 23.8H50.8C49.5771 24.0609 48.3129 24.0609 47.09 23.8C46.9016 23.7654 46.7071 23.7856 46.5299 23.8583C46.3526 23.931 46.1999 24.0531 46.09 24.21L44.09 27L43.76 26.86L44.46 23.5C44.4926 23.3096 44.4693 23.1139 44.393 22.9364C44.3167 22.7589 44.1906 22.6074 44.03 22.5C42.9867 21.8093 42.1008 20.9063 41.43 19.85C41.324 19.6876 41.173 19.5595 40.9954 19.4814C40.8179 19.4033 40.6214 19.3785 40.43 19.41L37 20L36.87 19.67L39.74 17.78C39.9006 17.6727 40.0267 17.5211 40.103 17.3437C40.1793 17.1662 40.2026 16.9704 40.17 16.78C39.9077 15.5539 39.9077 14.2861 40.17 13.06C40.2047 12.8716 40.1844 12.6771 40.1117 12.4999C40.0391 12.3226 39.917 12.1699 39.76 12.06L37 10.09L37.14 9.76002L40.5 10.46C40.6904 10.4926 40.8862 10.4693 41.0636 10.393C41.2411 10.3167 41.3927 10.1906 41.5 10.03C42.1908 8.98671 43.0937 8.10077 44.15 7.43002C44.3124 7.32398 44.4405 7.17298 44.5186 6.99542C44.5968 6.81787 44.6216 6.62142 44.59 6.43002L44 3.00002L44.33 2.87002L46.22 5.74002C46.3274 5.90063 46.4789 6.0267 46.6564 6.10301C46.8338 6.17932 47.0296 6.20259 47.22 6.17002C48.4462 5.90858 49.7138 5.90858 50.94 6.17002C51.1285 6.20467 51.3229 6.18444 51.5002 6.11176C51.6775 6.03907 51.8301 5.91698 51.94 5.76002L53.91 3.00002L54.24 3.14002L53.54 6.50002C53.5074 6.69043 53.5307 6.8862 53.607 7.06366C53.6833 7.24112 53.8094 7.39268 53.97 7.50002C55.0133 8.19077 55.8993 9.09374 56.57 10.15C56.6761 10.3125 56.8271 10.4405 57.0046 10.5187C57.1822 10.5968 57.3786 10.6216 57.57 10.59L61 10L61.13 10.33L58.26 12.22C58.0994 12.3274 57.9733 12.4789 57.897 12.6564C57.8207 12.8339 57.7974 13.0296 57.83 13.22C58.0921 14.4462 58.0921 15.7139 57.83 16.94C57.7954 17.1285 57.8156 17.3229 57.8883 17.5002C57.961 17.6775 58.0831 17.8301 58.24 17.94L61 19.91L60.9 20.25Z" fill="black"/>
</g>
<defs>
<clipPath id="clip0_0_452">
<rect width="64" height="64" fill="white"/>
</clipPath>
</defs>
</svg>
