<svg width="64" height="64" viewBox="0 0 64 64" fill="none" xmlns="http://www.w3.org/2000/svg">
<path d="M8 41L25 33L32 35L39 33L56 41C59.067 42.2 61 46.167 61 49.46V57C61 58.105 60.105 59 59 59H5C3.895 59 3 58.105 3 57V49.46C3 46.167 4.933 42.2 8 41Z" fill="#C2CDE7"/>
<path d="M32 45C37.16 45 43 42 46 36L39 33L32 35L26 33L18 36C20.926 40.076 26.84 45 32 45Z" fill="#C2CDE7"/>
<path d="M59 60H5C3.346 60 2 58.654 2 57V49.328C2 45.099 4.469 41.197 8.291 39.387L24.855 31.969L32 32.99L39.145 31.969L55.689 39.378C59.531 41.197 62 45.1 62 49.328V57C62 58.654 60.654 60 59 60ZM9.138 41.199C6.016 42.682 4 45.872 4 49.328V57C4 57.551 4.449 58 5 58H59C59.551 58 60 57.551 60 57V49.328C60 45.868 57.979 42.676 54.853 41.195L38.855 34.031L32 35.01L25.145 34.031L9.138 41.199Z" fill="black"/>
<path d="M44.921 19.612C44.697 17.268 44.061 14.776 44.364 13.664C44.553 12.97 44 13 47 14C43 4 37.839 3 32 3C28.609 3 26.088 3.584 24 5C19.438 5 18.844 12.205 18.775 19.134C17.69 18.721 17 19.543 17 21C17 22.578 18.011 25.931 20 27C21.529 34.461 27 39 32 39C37 39 42 34 44 27C46.22 26.056 47 22.643 47 21C47 19.273 46.306 18.532 44.921 19.612Z" fill="#FAEFDE"/>
<path d="M26 11C29 13 35.353 14 38 14C41.888 14 42 14 44 14C44 14 46 13 47 14C44 5 37.058 3 34 3H30C28.388 3 26 4 25 5C22.195 4.104 19 7.492 19 12V18C22 17 25 12 26 11Z" fill="#CDA1A7"/>
<path d="M27.92 12.88C30.784 14.27 33.926 14.995 37.11 15H39.66C40.212 15 40.66 14.552 40.66 14C40.66 13.448 40.212 13 39.66 13H37.11C34.227 12.996 31.383 12.339 28.79 11.08L27.23 10.32C26.325 9.87804 25.232 10.178 24.68 11.02L23.08 13.45C22.784 13.916 22.922 14.534 23.388 14.83C23.843 15.119 24.446 14.995 24.75 14.55L26.35 12.12L27.92 12.88Z" fill="black"/>
<path d="M46.28 18.12C46.139 18.084 45.995 18.064 45.85 18.06C45.678 16.881 45.37 15.727 44.93 14.62V14.51C45.404 14.567 45.868 14.688 46.31 14.87C46.82 15.082 47.405 14.84 47.617 14.33C47.696 14.14 47.714 13.93 47.67 13.73C46 6.41 40.56 2 33 2H32C29.43 2.011 26.908 2.701 24.69 4C21 4.14 18.42 6.76 18 10.9C17.815 12.765 17.859 14.646 18.13 16.5C18.184 16.831 18.214 17.165 18.22 17.5C18.22 17.687 18.19 17.873 18.13 18.06C17.982 18.064 17.834 18.084 17.69 18.12C16.04 18.56 15.35 20.97 16.09 23.73C16.63 25.73 17.75 27.23 18.97 27.73C19.593 29.588 20.45 31.358 21.52 33L21.517 33.002C21.821 33.618 22.7 34.68 22.7 34.68C25.16 37.79 28.4 40 32 40C35.584 40 38.811 37.808 41.267 34.729C41.635 34.271 42.48 33 42.48 33C43.539 31.357 44.386 29.586 45 27.73C46.23 27.27 47.35 25.73 47.88 23.73C48.62 20.98 47.88 18.57 46.28 18.12ZM45.95 23.25C45.45 25.1 44.51 25.87 44.22 25.87C43.761 25.852 43.348 26.149 43.22 26.59C41.59 32.26 37.18 38 32 38C26.82 38 22.41 32.26 20.72 26.6C20.597 26.177 20.211 25.884 19.77 25.88H19.75C19.46 25.88 18.51 25.1 18.02 23.26C17.53 21.42 17.97 20.17 18.2 20.11C18.299 20.127 18.391 20.168 18.47 20.23C18.938 20.523 19.555 20.382 19.848 19.914C19.939 19.768 19.991 19.602 20 19.43C20.024 18.914 20.081 18.399 20.17 17.89C20.222 17.342 20.195 16.79 20.09 16.25C19.851 14.543 19.821 12.814 20 11.1C20.31 7.91 22.19 6 25 6C25.216 6 25.427 5.93 25.6 5.8C27.523 4.613 29.74 3.99 32 4H33C39.07 4 43.45 7.1 45.25 12.58C44.577 12.449 43.88 12.625 43.35 13.06C42.774 13.687 42.657 14.61 43.06 15.36C43.593 16.654 43.898 18.032 43.96 19.43C43.988 19.982 44.458 20.406 45.009 20.378C45.183 20.369 45.353 20.315 45.499 20.22C45.579 20.16 45.671 20.119 45.769 20.1C46.01 20.18 46.45 21.4 45.95 23.25Z" fill="black"/>
</svg>
