<svg width="22" height="19" viewBox="0 0 22 19" fill="none" xmlns="http://www.w3.org/2000/svg">
<path d="M20.0991 1C20.7154 1 21.1804 1.54774 20.9317 2.56654L17.915 16.9721C17.7041 17.9964 17.0932 18.2429 16.2498 17.7664L9.05408 12.3821C9.02618 12.3618 9.00344 12.3351 8.98776 12.3041C8.97208 12.2731 8.9639 12.2388 8.9639 12.2041C8.9639 12.1693 8.97208 12.135 8.98776 12.104C9.00344 12.073 9.02618 12.0463 9.05408 12.026L17.3635 4.42338C17.742 4.08378 17.2824 3.91946 16.7851 4.2262L6.35635 10.8922C6.32472 10.9131 6.28881 10.9264 6.25134 10.9312C6.21387 10.9359 6.17583 10.932 6.1401 10.9196L1.71236 9.50095C0.728415 9.21064 0.728414 8.52597 1.93401 8.03848L19.6504 1.11503C19.7909 1.04673 19.9435 1.00762 20.0991 1V1Z" stroke="white" stroke-linecap="round" stroke-linejoin="round"/>
</svg>
