<svg width="20" height="21" viewBox="0 0 20 21" fill="none" xmlns="http://www.w3.org/2000/svg">
<path d="M15.7564 11.8275L12.6189 10.2587C12.5262 10.2127 12.423 10.1918 12.3198 10.1984C12.2165 10.2049 12.1167 10.2386 12.0306 10.296L10.4932 11.3206C9.71491 10.9222 9.0817 10.289 8.68326 9.51064L9.70884 7.97423C9.76625 7.88812 9.79993 7.78838 9.80647 7.68509C9.81301 7.5818 9.79218 7.47862 9.7461 7.38595L8.17733 4.24841C8.12855 4.15025 8.05332 4.06767 7.96012 4.00998C7.86692 3.95229 7.75945 3.92179 7.64983 3.92192C6.66169 3.92192 5.71401 4.31446 5.01528 5.01318C4.31656 5.71191 3.92402 6.65959 3.92402 7.64773C3.92661 9.88327 4.81582 12.0265 6.39659 13.6073C7.97736 15.188 10.1206 16.0773 12.3561 16.0799C13.3443 16.0799 14.292 15.6873 14.9907 14.9886C15.6894 14.2899 16.082 13.3422 16.082 12.354C16.082 12.2447 16.0515 12.1375 15.994 12.0445C15.9365 11.9515 15.8543 11.8764 15.7564 11.8275ZM12.3561 14.9033C10.4326 14.9009 8.58844 14.1358 7.22827 12.7756C5.8681 11.4154 5.10292 9.57131 5.10059 7.64773C5.10065 7.03248 5.32321 6.438 5.72722 5.97399C6.13123 5.50997 6.68943 5.20772 7.29882 5.123L8.54011 7.60557L7.52139 9.13316C7.46787 9.21373 7.43503 9.30625 7.4258 9.40253C7.41656 9.49882 7.43121 9.5959 7.46845 9.68517C8.0094 10.9713 9.03255 11.9945 10.3187 12.5354C10.408 12.5727 10.505 12.5873 10.6013 12.5781C10.6976 12.5688 10.7901 12.536 10.8707 12.4825L12.3983 11.4638L14.8809 12.705C14.7962 13.3144 14.4939 13.8726 14.0299 14.2766C13.5659 14.6807 12.9714 14.9032 12.3561 14.9033ZM10.003 2.20428e-07C8.26929 -0.00036373 6.56528 0.449969 5.05812 1.30682C3.55097 2.16367 2.29245 3.39759 1.40603 4.88755C0.519614 6.3775 0.0357485 8.0723 0.00190601 9.80566C-0.0319365 11.539 0.385407 13.2514 1.21299 14.7748L0.0736748 18.1938C-0.00698272 18.4356 -0.018688 18.6952 0.039871 18.9433C0.09843 19.1914 0.224939 19.4184 0.405219 19.5986C0.585498 19.7789 0.812424 19.9054 1.06056 19.964C1.3087 20.0226 1.56824 20.0108 1.8101 19.9302L5.22903 18.7909C6.56737 19.5172 8.05388 19.9282 9.57522 19.9928C11.0966 20.0573 12.6125 19.7736 14.0076 19.1633C15.4026 18.553 16.6399 17.6322 17.625 16.4711C18.6101 15.31 19.3171 13.9393 19.6921 12.4634C20.067 10.9876 20.1 9.44567 19.7885 7.95517C19.4771 6.46466 18.8293 5.06496 17.8948 3.86279C16.9602 2.66062 15.7635 1.68773 14.3958 1.0183C13.0282 0.348876 11.5257 0.00058913 10.003 2.20428e-07ZM10.003 18.8252C8.4518 18.8256 6.92793 18.417 5.58495 17.6408C5.49542 17.5893 5.39407 17.5619 5.2908 17.5614C5.2275 17.5617 5.16465 17.572 5.10451 17.5917L1.4385 18.8134C1.40395 18.8249 1.36687 18.8266 1.33142 18.8183C1.29598 18.8099 1.26356 18.7918 1.2378 18.7661C1.21205 18.7403 1.19398 18.7079 1.18561 18.6724C1.17725 18.637 1.17892 18.5999 1.19044 18.5654L2.41212 14.9033C2.43855 14.8241 2.44785 14.7403 2.4394 14.6573C2.43094 14.5743 2.40493 14.494 2.36309 14.4219C1.38973 12.7404 0.998479 10.7848 1.25004 8.85828C1.50161 6.9318 2.38193 5.14218 3.75442 3.76708C5.12691 2.39198 6.91486 1.50827 8.84086 1.25305C10.7669 0.997824 12.7233 1.38536 14.4065 2.35553C16.0898 3.32571 17.4059 4.82428 18.1505 6.61875C18.8951 8.41323 19.0268 10.4033 18.5249 12.2802C18.0231 14.1571 16.9159 15.816 15.375 16.9993C13.8342 18.1827 11.9458 18.8245 10.003 18.8252Z" fill="white"/>
</svg>
